%TF.GenerationSoftware,Altium Limited,Altium Designer,24.3.1 (35)*%
G04 Layer_Color=8388736*
%FSLAX25Y25*%
%MOIN*%
%TF.SameCoordinates,1C50E6C9-DA4A-4B26-87AC-B265A0C711DB*%
%TF.FilePolarity,Negative*%
%TF.FileFunction,Soldermask,Top*%
%TF.Part,Single*%
G01*
G75*
%TA.AperFunction,WasherPad*%
%ADD21C,0.06000*%
%TA.AperFunction,ComponentPad*%
%ADD33R,0.07874X0.07874*%
%ADD34C,0.07874*%
%TA.AperFunction,SMDPad,CuDef*%
%ADD56R,0.06509X0.05328*%
%ADD57R,0.05328X0.06509*%
%ADD58R,0.14658X0.08162*%
%ADD59R,0.17808X0.07965*%
%ADD60R,0.06706X0.03359*%
%ADD61R,0.03359X0.08379*%
%TA.AperFunction,ComponentPad*%
%ADD62R,0.05367X0.05367*%
%ADD63C,0.05367*%
%ADD64R,0.06410X0.06410*%
%ADD65C,0.06410*%
%ADD66C,0.08182*%
%ADD67R,0.08182X0.08182*%
%ADD68R,0.08182X0.08182*%
%ADD69R,0.06048X0.06048*%
%ADD70C,0.06048*%
%ADD71C,0.06343*%
%ADD72C,0.07414*%
%ADD73C,0.07119*%
%ADD74R,0.06343X0.06343*%
%ADD75C,0.06174*%
%ADD76C,0.03084*%
%ADD77C,0.02572*%
%ADD78C,0.07001*%
%ADD79R,0.07001X0.07001*%
%ADD80R,0.07296X0.07296*%
%ADD81C,0.07296*%
%ADD82C,0.09186*%
%ADD83R,0.09186X0.09186*%
%ADD84R,0.07001X0.07001*%
%ADD85C,0.06706*%
%ADD86C,0.07887*%
%ADD87R,0.07887X0.07887*%
%TA.AperFunction,ViaPad*%
%ADD88C,0.05800*%
D21*
X140000Y236000D02*
D03*
X123000D02*
D03*
X89000D02*
D03*
X106000D02*
D03*
X81000D02*
D03*
X114000D02*
D03*
X98000D02*
D03*
X131000D02*
D03*
X148000D02*
D03*
X202000Y38000D02*
D03*
X13000Y262000D02*
D03*
X285000Y574000D02*
D03*
D33*
X215500Y287726D02*
D03*
X153394Y287840D02*
D03*
D34*
X264713Y287726D02*
D03*
X215500Y268041D02*
D03*
X264713D02*
D03*
X202606Y287840D02*
D03*
X153394Y268155D02*
D03*
X202606D02*
D03*
D56*
X55000Y411543D02*
D03*
Y404457D02*
D03*
X199500Y476043D02*
D03*
Y468957D02*
D03*
X199970Y526957D02*
D03*
Y534043D02*
D03*
X199500Y496957D02*
D03*
Y504043D02*
D03*
X196000Y346500D02*
D03*
Y353587D02*
D03*
X183500Y332000D02*
D03*
Y324913D02*
D03*
X13000Y286957D02*
D03*
Y294043D02*
D03*
X28500Y286957D02*
D03*
Y294043D02*
D03*
X41007Y411543D02*
D03*
Y404457D02*
D03*
X26099Y439000D02*
D03*
Y431913D02*
D03*
X69500Y404457D02*
D03*
Y411543D02*
D03*
X27000D02*
D03*
Y404457D02*
D03*
D57*
X256543Y592500D02*
D03*
X249457D02*
D03*
X276457D02*
D03*
X283543D02*
D03*
X76500Y279000D02*
D03*
X69413D02*
D03*
X206087Y312000D02*
D03*
X199000D02*
D03*
X206543Y330000D02*
D03*
X199457D02*
D03*
X179043Y311500D02*
D03*
X171957D02*
D03*
X77543Y307500D02*
D03*
X70457D02*
D03*
X49543D02*
D03*
X42457D02*
D03*
X55500Y292993D02*
D03*
X48413D02*
D03*
X77957Y322000D02*
D03*
X85043D02*
D03*
X83543Y293500D02*
D03*
X76457D02*
D03*
X49043Y279000D02*
D03*
X41957D02*
D03*
X48957Y321500D02*
D03*
X56043D02*
D03*
X97457Y370000D02*
D03*
X104543D02*
D03*
X97457Y384310D02*
D03*
X104543D02*
D03*
D58*
X130166Y422500D02*
D03*
D59*
X190639D02*
D03*
D60*
X85370Y359275D02*
D03*
Y354275D02*
D03*
Y349275D02*
D03*
Y344275D02*
D03*
X106630D02*
D03*
Y349275D02*
D03*
Y354275D02*
D03*
Y359275D02*
D03*
D61*
X41076Y371551D02*
D03*
X46076D02*
D03*
X51076D02*
D03*
X56076D02*
D03*
X61076D02*
D03*
X66076D02*
D03*
X71076D02*
D03*
X76076D02*
D03*
Y334449D02*
D03*
X71076D02*
D03*
X66076D02*
D03*
X61076D02*
D03*
X56076D02*
D03*
X51076D02*
D03*
X46076D02*
D03*
X41076D02*
D03*
D62*
X123000Y12740D02*
D03*
D63*
X113000D02*
D03*
X103000D02*
D03*
X93000D02*
D03*
X83000D02*
D03*
X73000D02*
D03*
X63000D02*
D03*
X53000D02*
D03*
X43000D02*
D03*
X33000D02*
D03*
X23000D02*
D03*
X13000D02*
D03*
Y44000D02*
D03*
X23000D02*
D03*
X33000D02*
D03*
X43000D02*
D03*
X53000D02*
D03*
X63000D02*
D03*
X73000D02*
D03*
X83000D02*
D03*
X93000D02*
D03*
X103000D02*
D03*
X113000D02*
D03*
X123000D02*
D03*
D64*
X12000Y68500D02*
D03*
X67500D02*
D03*
X177500Y70000D02*
D03*
X122500Y69500D02*
D03*
X177000Y150000D02*
D03*
X12000Y149500D02*
D03*
X122500D02*
D03*
X67000D02*
D03*
D65*
X22000Y68500D02*
D03*
X32000D02*
D03*
X42000D02*
D03*
X52000D02*
D03*
Y128500D02*
D03*
X42000D02*
D03*
X32000D02*
D03*
X22000D02*
D03*
X12000D02*
D03*
X77500Y68500D02*
D03*
X87500D02*
D03*
X97500D02*
D03*
X107500D02*
D03*
Y128500D02*
D03*
X97500D02*
D03*
X87500D02*
D03*
X77500D02*
D03*
X67500D02*
D03*
X187500Y70000D02*
D03*
X197500D02*
D03*
X207500D02*
D03*
X217500D02*
D03*
Y130000D02*
D03*
X207500D02*
D03*
X197500D02*
D03*
X187500D02*
D03*
X177500D02*
D03*
X132500Y69500D02*
D03*
X142500D02*
D03*
X152500D02*
D03*
X162500D02*
D03*
Y129500D02*
D03*
X152500D02*
D03*
X142500D02*
D03*
X132500D02*
D03*
X122500D02*
D03*
X187000Y150000D02*
D03*
X197000D02*
D03*
X207000D02*
D03*
X217000D02*
D03*
Y210000D02*
D03*
X207000D02*
D03*
X197000D02*
D03*
X187000D02*
D03*
X177000D02*
D03*
X22000Y149500D02*
D03*
X32000D02*
D03*
X42000D02*
D03*
X52000D02*
D03*
Y209500D02*
D03*
X42000D02*
D03*
X32000D02*
D03*
X22000D02*
D03*
X12000D02*
D03*
X132500Y149500D02*
D03*
X142500D02*
D03*
X152500D02*
D03*
X162500D02*
D03*
Y209500D02*
D03*
X152500D02*
D03*
X142500D02*
D03*
X132500D02*
D03*
X122500D02*
D03*
X77000Y149500D02*
D03*
X87000D02*
D03*
X97000D02*
D03*
X107000D02*
D03*
Y209500D02*
D03*
X97000D02*
D03*
X87000D02*
D03*
X77000D02*
D03*
X67000D02*
D03*
D66*
X181000Y42500D02*
D03*
X171000D02*
D03*
X161000D02*
D03*
X151000D02*
D03*
X279500Y329345D02*
D03*
Y319345D02*
D03*
Y309345D02*
D03*
Y299345D02*
D03*
X105500Y278500D02*
D03*
Y288500D02*
D03*
Y298500D02*
D03*
Y308500D02*
D03*
Y318500D02*
D03*
X48000Y263000D02*
D03*
X58000D02*
D03*
X68000D02*
D03*
X78000D02*
D03*
X88000D02*
D03*
D67*
X141000Y42500D02*
D03*
X38000Y263000D02*
D03*
D68*
X279500Y289345D02*
D03*
X105500Y268500D02*
D03*
D69*
X199236Y377000D02*
D03*
D70*
X189000D02*
D03*
X178764D02*
D03*
D71*
X126961Y356500D02*
D03*
X156961D02*
D03*
X218000Y439500D02*
D03*
Y449500D02*
D03*
Y429500D02*
D03*
Y419500D02*
D03*
Y409500D02*
D03*
Y399500D02*
D03*
Y389500D02*
D03*
Y379500D02*
D03*
Y369500D02*
D03*
Y359500D02*
D03*
Y459500D02*
D03*
Y469500D02*
D03*
Y479500D02*
D03*
Y489500D02*
D03*
Y499500D02*
D03*
Y509500D02*
D03*
Y519500D02*
D03*
Y529500D02*
D03*
Y539500D02*
D03*
X288000Y439500D02*
D03*
Y449500D02*
D03*
Y429500D02*
D03*
Y419500D02*
D03*
Y409500D02*
D03*
Y399500D02*
D03*
Y389500D02*
D03*
Y379500D02*
D03*
Y369500D02*
D03*
Y359500D02*
D03*
Y459500D02*
D03*
Y469500D02*
D03*
Y479500D02*
D03*
Y489500D02*
D03*
Y499500D02*
D03*
Y509500D02*
D03*
Y519500D02*
D03*
Y529500D02*
D03*
Y539500D02*
D03*
D72*
X249500Y321500D02*
D03*
X239500D02*
D03*
D73*
X277500Y610500D02*
D03*
X267500D02*
D03*
X257500D02*
D03*
X247500D02*
D03*
X24500Y343500D02*
D03*
Y333500D02*
D03*
Y323500D02*
D03*
Y313500D02*
D03*
D74*
X218000Y349500D02*
D03*
X288000D02*
D03*
D75*
X122000Y264266D02*
D03*
X132000D02*
D03*
X122000Y308000D02*
D03*
X132000D02*
D03*
X122000Y286133D02*
D03*
X132000D02*
D03*
X19000Y366000D02*
D03*
X29000D02*
D03*
D76*
X145442Y422500D02*
D03*
D77*
X173985D02*
D03*
D78*
X112000Y396000D02*
D03*
X83810Y451500D02*
D03*
X97500Y395988D02*
D03*
X12500Y444431D02*
D03*
X16500Y455716D02*
D03*
D79*
X112000Y451512D02*
D03*
X83810Y395988D02*
D03*
X97500Y451500D02*
D03*
X12500Y388919D02*
D03*
D80*
X79512Y384700D02*
D03*
D81*
X24000D02*
D03*
D82*
X65191Y427000D02*
D03*
X55152D02*
D03*
D83*
X45112D02*
D03*
D84*
X72012Y455716D02*
D03*
D85*
X224000Y569000D02*
D03*
X204000D02*
D03*
X50500Y589000D02*
D03*
X148925D02*
D03*
Y490575D02*
D03*
X129240D02*
D03*
X70185D02*
D03*
X50500D02*
D03*
D86*
X221280Y602000D02*
D03*
D87*
X207500D02*
D03*
D88*
X244000Y599000D02*
D03*
X210000Y341000D02*
D03*
X108000Y38000D02*
D03*
X63313Y269500D02*
D03*
X37600Y102900D02*
D03*
X194850Y460350D02*
D03*
X134200Y314200D02*
D03*
X163500Y464200D02*
D03*
X58000Y277000D02*
D03*
X223100Y274800D02*
D03*
X207900Y503500D02*
D03*
X94400Y354500D02*
D03*
X84800Y29700D02*
D03*
X51076Y382400D02*
D03*
X189300Y437700D02*
D03*
X187800Y351700D02*
D03*
%TF.MD5,6c1a0d895e194a4407ed6bedea064029*%
M02*
