%TF.GenerationSoftware,Altium Limited,Altium Designer,24.3.1 (35)*%
G04 Layer_Color=16711935*
%FSLAX25Y25*%
%MOIN*%
%TF.SameCoordinates,1C50E6C9-DA4A-4B26-87AC-B265A0C711DB*%
%TF.FilePolarity,Positive*%
%TF.FileFunction,Other,Mechanical_13*%
%TF.Part,Single*%
G01*
G75*
%TA.AperFunction,NonConductor*%
%ADD50C,0.00787*%
%ADD51C,0.00394*%
%ADD52C,0.00500*%
%ADD89C,0.00000*%
%ADD90C,0.00100*%
D50*
X255917Y321500D02*
G03*
X233083Y321500I-11417J0D01*
G01*
D02*
G03*
X255917Y321500I11417J0D01*
G01*
X218394Y339185D02*
G03*
X218394Y339185I-394J0D01*
G01*
X131111Y422500D02*
G03*
X189300Y422500I29094J0D01*
G01*
D02*
G03*
X131111Y422500I-29094J0D01*
G01*
X57461Y404063D02*
Y411937D01*
X52539Y404063D02*
X57461D01*
X52539D02*
Y411937D01*
X57461D01*
X155539Y13063D02*
X160461D01*
X155539D02*
Y20937D01*
X160461D01*
Y13063D02*
Y20937D01*
X138539Y13106D02*
X143461D01*
X138539D02*
Y20980D01*
X143461D01*
Y13106D02*
Y20980D01*
X174539Y13063D02*
X179461D01*
X174539D02*
Y20937D01*
X179461D01*
Y13063D02*
Y20937D01*
X197039Y468563D02*
X201961D01*
Y476437D01*
X197039D02*
X201961D01*
X197039Y468563D02*
Y476437D01*
X197509Y534437D02*
X202430D01*
X197509Y526563D02*
Y534437D01*
Y526563D02*
X202430D01*
Y534437D01*
X197039Y504437D02*
X201961D01*
X197039Y496563D02*
Y504437D01*
Y496563D02*
X201961D01*
Y504437D01*
X193539Y353980D02*
X198461D01*
X193539Y346106D02*
Y353980D01*
Y346106D02*
X198461D01*
Y353980D01*
X249063Y590039D02*
Y594961D01*
Y590039D02*
X256937D01*
Y594961D01*
X249063D02*
X256937D01*
X283937Y590039D02*
Y594961D01*
X276063D02*
X283937D01*
X276063Y590039D02*
Y594961D01*
Y590039D02*
X283937D01*
X241516Y605579D02*
Y615421D01*
Y605579D02*
X283484D01*
Y615421D01*
X241516D02*
X283484D01*
X181039Y324520D02*
X185961D01*
Y332394D01*
X181039D02*
X185961D01*
X181039Y324520D02*
Y332394D01*
X69020Y276539D02*
Y281461D01*
Y276539D02*
X76894D01*
Y281461D01*
X69020D02*
X76894D01*
X198606Y309539D02*
Y314461D01*
Y309539D02*
X206480D01*
Y314461D01*
X198606D02*
X206480D01*
X199063Y327539D02*
Y332461D01*
Y327539D02*
X206937D01*
Y332461D01*
X199063D02*
X206937D01*
X171563Y309039D02*
Y313961D01*
Y309039D02*
X179437D01*
Y313961D01*
X171563D02*
X179437D01*
X70063Y305039D02*
Y309961D01*
Y305039D02*
X77937D01*
Y309961D01*
X70063D02*
X77937D01*
X10539Y294437D02*
X15461D01*
X10539Y286563D02*
Y294437D01*
Y286563D02*
X15461D01*
Y294437D01*
X42063Y305039D02*
Y309961D01*
Y305039D02*
X49937D01*
Y309961D01*
X42063D02*
X49937D01*
X48020Y290533D02*
Y295454D01*
Y290533D02*
X55894D01*
Y295454D01*
X48020D02*
X55894D01*
X85437Y319539D02*
Y324461D01*
X77563D02*
X85437D01*
X77563Y319539D02*
Y324461D01*
Y319539D02*
X85437D01*
X26039Y294437D02*
X30961D01*
X26039Y286563D02*
Y294437D01*
Y286563D02*
X30961D01*
Y294437D01*
X76063Y291039D02*
Y295961D01*
Y291039D02*
X83937D01*
Y295961D01*
X76063D02*
X83937D01*
X41563Y276539D02*
Y281461D01*
Y276539D02*
X49437D01*
Y281461D01*
X41563D02*
X49437D01*
X56437Y319039D02*
Y323961D01*
X48563D02*
X56437D01*
X48563Y319039D02*
Y323961D01*
Y319039D02*
X56437D01*
X104937Y367539D02*
Y372461D01*
X97063D02*
X104937D01*
X97063Y367539D02*
Y372461D01*
Y367539D02*
X104937D01*
X19579Y307516D02*
X29421D01*
Y349484D01*
X19579D02*
X29421D01*
X19579Y307516D02*
Y349484D01*
X104937Y381849D02*
Y386771D01*
X97063D02*
X104937D01*
X97063Y381849D02*
Y386771D01*
Y381849D02*
X104937D01*
X38546Y404063D02*
X43468D01*
Y411937D01*
X38546D02*
X43468D01*
X38546Y404063D02*
Y411937D01*
X23639Y431520D02*
X28560D01*
Y439394D01*
X23639D02*
X28560D01*
X23639Y431520D02*
Y439394D01*
X67039Y411937D02*
X71961D01*
X67039Y404063D02*
Y411937D01*
Y404063D02*
X71961D01*
Y411937D01*
X24539Y404063D02*
X29461D01*
Y411937D01*
X24539D02*
X29461D01*
X24539Y404063D02*
Y411937D01*
X197563Y560535D02*
Y577465D01*
X230437D01*
Y560535D02*
Y577465D01*
X197563Y560535D02*
X230437D01*
X13098Y612622D02*
X186327D01*
Y466953D02*
Y612622D01*
X13098Y466953D02*
X186327D01*
X13098D02*
Y612622D01*
D51*
X179630Y377512D02*
G03*
X198370Y377512I9370J0D01*
G01*
X120701Y264266D02*
G03*
X133299Y264266I6299J0D01*
G01*
D02*
G03*
X120701Y264266I-6299J0D01*
G01*
Y308000D02*
G03*
X133299Y308000I6299J0D01*
G01*
D02*
G03*
X120701Y308000I-6299J0D01*
G01*
Y286133D02*
G03*
X133299Y286133I6299J0D01*
G01*
D02*
G03*
X120701Y286133I-6299J0D01*
G01*
X17701Y366000D02*
G03*
X30299Y366000I6299J0D01*
G01*
D02*
G03*
X17701Y366000I-6299J0D01*
G01*
X131248Y12878D02*
Y43862D01*
X4752D02*
X131248D01*
X4752Y12878D02*
Y43862D01*
Y12878D02*
X131248D01*
X126248D02*
X131248Y17878D01*
X6508Y60508D02*
Y136492D01*
X57492D01*
Y60508D02*
Y136492D01*
X6508Y60508D02*
X57492D01*
X6508Y65508D02*
X11508Y60508D01*
X62008D02*
Y136492D01*
X112992D01*
Y60508D02*
Y136492D01*
X62008Y60508D02*
X112992D01*
X62008Y65508D02*
X67008Y60508D01*
X172008Y62008D02*
Y137992D01*
X222992D01*
Y62008D02*
Y137992D01*
X172008Y62008D02*
X222992D01*
X172008Y67008D02*
X177008Y62008D01*
X135016Y47421D02*
X187969D01*
Y37579D02*
Y47421D01*
X135016Y37579D02*
X187969D01*
X135016D02*
Y47421D01*
X117008Y61508D02*
Y137492D01*
X167992D01*
Y61508D02*
Y137492D01*
X117008Y61508D02*
X167992D01*
X117008Y66508D02*
X122008Y61508D01*
X171508Y142008D02*
Y217992D01*
X222492D01*
Y142008D02*
Y217992D01*
X171508Y142008D02*
X222492D01*
X171508Y147008D02*
X176508Y142008D01*
X6508Y141508D02*
Y217492D01*
X57492D01*
Y141508D02*
Y217492D01*
X6508Y141508D02*
X57492D01*
X6508Y146508D02*
X11508Y141508D01*
X117008D02*
Y217492D01*
X167992D01*
Y141508D02*
Y217492D01*
X117008Y141508D02*
X167992D01*
X117008Y146508D02*
X122008Y141508D01*
X61508D02*
Y217492D01*
X112492D01*
Y141508D02*
Y217492D01*
X61508Y141508D02*
X112492D01*
X61508Y146508D02*
X66508Y141508D01*
X284421Y283361D02*
Y336314D01*
X274579D02*
X284421D01*
X274579Y283361D02*
Y336314D01*
Y283361D02*
X284421D01*
X179630Y382630D02*
X198370D01*
X179630Y377512D02*
Y382630D01*
X198370Y377512D02*
Y382630D01*
X100579Y262516D02*
X110421D01*
X100579D02*
Y325469D01*
X110421D01*
Y262516D02*
Y325469D01*
X32016Y258079D02*
Y267921D01*
X94969D01*
Y258079D02*
Y267921D01*
X32016Y258079D02*
X94969D01*
X88323Y361420D02*
X103677D01*
Y342129D02*
Y361420D01*
X88323Y342129D02*
X103677D01*
X88323D02*
Y361420D01*
Y356420D02*
X93323Y361420D01*
X38300Y343236D02*
X43300Y338236D01*
X38300D02*
X78851D01*
Y367764D01*
X38300D02*
X78851D01*
X38300Y338236D02*
Y367764D01*
X112000Y396000D02*
Y414602D01*
Y432909D02*
Y451512D01*
Y432909D02*
X116626Y428283D01*
X107374Y432909D02*
X116626D01*
X107374Y414602D02*
Y432909D01*
Y414602D02*
X116626D01*
Y432909D01*
X83810Y432898D02*
Y451500D01*
Y395988D02*
Y414591D01*
X79184Y419217D02*
X83810Y414591D01*
X79184D02*
X88436D01*
Y432898D01*
X79184D02*
X88436D01*
X79184Y414591D02*
Y432898D01*
X42504Y380074D02*
X61008D01*
X42504D02*
Y389326D01*
X61008D01*
Y380074D02*
Y389326D01*
X56382Y380074D02*
X61008Y384700D01*
X79512D01*
X24000D02*
X42504D01*
X97500Y395988D02*
Y414591D01*
Y432898D02*
Y451500D01*
Y432898D02*
X102126Y428272D01*
X92874Y432898D02*
X102126D01*
X92874Y414591D02*
Y432898D01*
Y414591D02*
X102126D01*
Y432898D01*
X34679Y434185D02*
X39699Y439205D01*
X34679Y421094D02*
Y439205D01*
Y421094D02*
X75624D01*
Y439205D01*
X34679D02*
X75624D01*
X12500Y425829D02*
Y444431D01*
Y388919D02*
Y407522D01*
X7874Y412148D02*
X12500Y407522D01*
X7874D02*
X17126D01*
Y425829D01*
X7874D02*
X17126D01*
X7874Y407522D02*
Y425829D01*
X16500Y455716D02*
X35102D01*
X53409D02*
X72012D01*
X48783Y451090D02*
X53409Y455716D01*
Y451090D02*
Y460342D01*
X35102D02*
X53409D01*
X35102Y451090D02*
Y460342D01*
Y451090D02*
X53409D01*
X198445Y587827D02*
Y615386D01*
Y587827D02*
X230335D01*
Y615386D01*
X198445D02*
X230335D01*
D52*
X165584Y356500D02*
G03*
X165584Y356500I-23622J0D01*
G01*
X213039Y342138D02*
Y546862D01*
X292961D01*
Y342138D02*
Y546862D01*
X213039Y342138D02*
X292961D01*
D89*
X246000Y559900D02*
G03*
X246000Y559900I-800J0D01*
G01*
D90*
X244200Y558900D02*
Y580900D01*
X267800D01*
Y558900D02*
Y580900D01*
X244200Y558900D02*
X267800D01*
%TF.MD5,0dea93a79f15687cdefc0f12c299a968*%
M02*
