%TF.GenerationSoftware,Altium Limited,Altium Designer,24.3.1 (35)*%
G04 Layer_Color=16711935*
%FSLAX25Y25*%
%MOIN*%
%TF.SameCoordinates,1C50E6C9-DA4A-4B26-87AC-B265A0C711DB*%
%TF.FilePolarity,Positive*%
%TF.FileFunction,Other,Top_Assembly*%
%TF.Part,Single*%
G01*
G75*
%TA.AperFunction,NonConductor*%
%ADD50C,0.00787*%
G36*
X239124Y277880D02*
X239156D01*
X239193Y277877D01*
X239236Y277873D01*
X239327Y277858D01*
X239422Y277844D01*
X239517Y277818D01*
X239608Y277786D01*
X239611D01*
X239619Y277782D01*
X239630Y277775D01*
X239644Y277767D01*
X239688Y277746D01*
X239739Y277713D01*
X239797Y277669D01*
X239859Y277618D01*
X239917Y277556D01*
X239972Y277487D01*
Y277484D01*
X239979Y277476D01*
X239983Y277465D01*
X239994Y277451D01*
X240001Y277433D01*
X240012Y277411D01*
X240037Y277356D01*
X240063Y277287D01*
X240085Y277210D01*
X240099Y277123D01*
X240106Y277032D01*
X239793Y277003D01*
Y277007D01*
Y277010D01*
X239790Y277021D01*
Y277036D01*
X239782Y277069D01*
X239772Y277116D01*
X239757Y277163D01*
X239742Y277218D01*
X239717Y277269D01*
X239691Y277316D01*
X239688Y277320D01*
X239677Y277334D01*
X239659Y277360D01*
X239630Y277385D01*
X239593Y277418D01*
X239553Y277451D01*
X239498Y277484D01*
X239440Y277513D01*
X239437D01*
X239433Y277516D01*
X239422Y277520D01*
X239411Y277524D01*
X239375Y277535D01*
X239327Y277549D01*
X239269Y277564D01*
X239204Y277574D01*
X239131Y277582D01*
X239051Y277585D01*
X239018D01*
X238982Y277582D01*
X238938Y277578D01*
X238887Y277571D01*
X238829Y277564D01*
X238770Y277549D01*
X238716Y277531D01*
X238709Y277527D01*
X238690Y277520D01*
X238665Y277505D01*
X238632Y277491D01*
X238599Y277465D01*
X238563Y277440D01*
X238527Y277411D01*
X238497Y277374D01*
X238494Y277371D01*
X238487Y277356D01*
X238476Y277338D01*
X238461Y277309D01*
X238446Y277280D01*
X238436Y277243D01*
X238428Y277203D01*
X238425Y277160D01*
Y277156D01*
Y277138D01*
X238428Y277116D01*
X238432Y277087D01*
X238443Y277058D01*
X238454Y277021D01*
X238472Y276985D01*
X238497Y276952D01*
X238501Y276948D01*
X238512Y276938D01*
X238527Y276923D01*
X238552Y276901D01*
X238581Y276879D01*
X238621Y276854D01*
X238668Y276828D01*
X238723Y276806D01*
X238727Y276803D01*
X238745Y276799D01*
X238774Y276788D01*
X238792Y276785D01*
X238818Y276777D01*
X238843Y276766D01*
X238876Y276759D01*
X238912Y276748D01*
X238956Y276737D01*
X239000Y276726D01*
X239051Y276712D01*
X239109Y276697D01*
X239171Y276683D01*
X239175D01*
X239185Y276679D01*
X239204Y276676D01*
X239226Y276668D01*
X239255Y276661D01*
X239287Y276654D01*
X239360Y276632D01*
X239440Y276606D01*
X239524Y276581D01*
X239597Y276555D01*
X239630Y276541D01*
X239659Y276526D01*
X239662D01*
X239666Y276523D01*
X239688Y276508D01*
X239721Y276490D01*
X239757Y276461D01*
X239801Y276428D01*
X239844Y276388D01*
X239888Y276341D01*
X239924Y276290D01*
X239928Y276282D01*
X239939Y276264D01*
X239953Y276235D01*
X239968Y276199D01*
X239983Y276151D01*
X239997Y276097D01*
X240008Y276039D01*
X240012Y275977D01*
Y275973D01*
Y275969D01*
Y275958D01*
Y275944D01*
X240004Y275907D01*
X239997Y275860D01*
X239986Y275805D01*
X239968Y275744D01*
X239943Y275682D01*
X239906Y275620D01*
Y275616D01*
X239902Y275613D01*
X239884Y275591D01*
X239859Y275562D01*
X239826Y275525D01*
X239782Y275485D01*
X239728Y275442D01*
X239662Y275401D01*
X239589Y275365D01*
X239586D01*
X239579Y275361D01*
X239568Y275358D01*
X239553Y275350D01*
X239535Y275343D01*
X239509Y275336D01*
X239455Y275321D01*
X239386Y275307D01*
X239305Y275292D01*
X239222Y275281D01*
X239127Y275278D01*
X239080D01*
X239054Y275281D01*
X239029D01*
X238960Y275289D01*
X238883Y275300D01*
X238803Y275318D01*
X238716Y275340D01*
X238636Y275369D01*
X238632D01*
X238625Y275372D01*
X238614Y275380D01*
X238599Y275387D01*
X238563Y275405D01*
X238516Y275438D01*
X238461Y275474D01*
X238406Y275522D01*
X238355Y275576D01*
X238308Y275638D01*
Y275642D01*
X238304Y275645D01*
X238297Y275656D01*
X238290Y275667D01*
X238272Y275704D01*
X238250Y275751D01*
X238224Y275809D01*
X238206Y275878D01*
X238188Y275951D01*
X238181Y276031D01*
X238501Y276057D01*
Y276053D01*
Y276046D01*
X238505Y276035D01*
X238508Y276017D01*
X238519Y275977D01*
X238534Y275922D01*
X238556Y275864D01*
X238589Y275805D01*
X238629Y275751D01*
X238679Y275700D01*
X238687Y275696D01*
X238705Y275682D01*
X238741Y275660D01*
X238789Y275638D01*
X238850Y275616D01*
X238923Y275594D01*
X239014Y275580D01*
X239116Y275576D01*
X239167D01*
X239189Y275580D01*
X239218Y275583D01*
X239284Y275591D01*
X239356Y275605D01*
X239429Y275623D01*
X239498Y275653D01*
X239528Y275671D01*
X239557Y275689D01*
X239564Y275693D01*
X239579Y275707D01*
X239600Y275733D01*
X239622Y275762D01*
X239648Y275802D01*
X239669Y275846D01*
X239684Y275897D01*
X239691Y275955D01*
Y275962D01*
Y275977D01*
X239688Y276002D01*
X239681Y276031D01*
X239669Y276068D01*
X239651Y276104D01*
X239630Y276140D01*
X239597Y276177D01*
X239593Y276180D01*
X239575Y276191D01*
X239560Y276202D01*
X239546Y276209D01*
X239524Y276220D01*
X239498Y276235D01*
X239466Y276246D01*
X239429Y276260D01*
X239389Y276275D01*
X239342Y276293D01*
X239291Y276308D01*
X239233Y276326D01*
X239167Y276341D01*
X239094Y276359D01*
X239091D01*
X239076Y276362D01*
X239054Y276366D01*
X239029Y276373D01*
X238996Y276381D01*
X238956Y276392D01*
X238916Y276402D01*
X238872Y276413D01*
X238778Y276439D01*
X238687Y276464D01*
X238643Y276479D01*
X238603Y276493D01*
X238567Y276504D01*
X238538Y276519D01*
X238534D01*
X238527Y276523D01*
X238516Y276530D01*
X238501Y276537D01*
X238461Y276559D01*
X238414Y276588D01*
X238359Y276628D01*
X238304Y276672D01*
X238254Y276723D01*
X238210Y276777D01*
X238206Y276785D01*
X238192Y276803D01*
X238177Y276836D01*
X238155Y276879D01*
X238137Y276930D01*
X238119Y276992D01*
X238108Y277061D01*
X238104Y277134D01*
Y277138D01*
Y277141D01*
Y277152D01*
Y277167D01*
X238112Y277207D01*
X238119Y277258D01*
X238133Y277316D01*
X238152Y277378D01*
X238181Y277444D01*
X238221Y277513D01*
Y277516D01*
X238224Y277520D01*
X238243Y277542D01*
X238268Y277574D01*
X238304Y277611D01*
X238352Y277655D01*
X238410Y277702D01*
X238476Y277746D01*
X238552Y277786D01*
X238556D01*
X238563Y277789D01*
X238574Y277793D01*
X238589Y277800D01*
X238610Y277807D01*
X238636Y277818D01*
X238694Y277833D01*
X238763Y277851D01*
X238847Y277869D01*
X238938Y277880D01*
X239036Y277884D01*
X239094D01*
X239124Y277880D01*
D02*
G37*
G36*
X237817Y277837D02*
Y277822D01*
Y277800D01*
X237813Y277771D01*
X237809Y277738D01*
X237802Y277702D01*
X237795Y277665D01*
X237780Y277625D01*
Y277622D01*
X237777Y277618D01*
X237770Y277596D01*
X237755Y277564D01*
X237733Y277520D01*
X237704Y277469D01*
X237667Y277411D01*
X237628Y277352D01*
X237577Y277291D01*
Y277287D01*
X237569Y277283D01*
X237551Y277261D01*
X237518Y277229D01*
X237471Y277181D01*
X237416Y277127D01*
X237347Y277061D01*
X237263Y276989D01*
X237173Y276912D01*
X237169Y276908D01*
X237154Y276898D01*
X237133Y276879D01*
X237107Y276857D01*
X237074Y276828D01*
X237034Y276796D01*
X236994Y276759D01*
X236947Y276719D01*
X236856Y276632D01*
X236765Y276544D01*
X236721Y276501D01*
X236681Y276457D01*
X236645Y276417D01*
X236616Y276377D01*
Y276373D01*
X236608Y276370D01*
X236601Y276359D01*
X236594Y276344D01*
X236568Y276304D01*
X236539Y276257D01*
X236514Y276199D01*
X236488Y276137D01*
X236474Y276068D01*
X236466Y276002D01*
Y275998D01*
Y275995D01*
X236470Y275973D01*
X236474Y275937D01*
X236485Y275897D01*
X236499Y275846D01*
X236525Y275795D01*
X236557Y275744D01*
X236601Y275693D01*
X236608Y275685D01*
X236627Y275671D01*
X236652Y275653D01*
X236692Y275627D01*
X236743Y275605D01*
X236801Y275583D01*
X236870Y275569D01*
X236947Y275565D01*
X236969D01*
X236983Y275569D01*
X237027Y275572D01*
X237078Y275583D01*
X237133Y275598D01*
X237194Y275623D01*
X237253Y275656D01*
X237307Y275700D01*
X237314Y275707D01*
X237329Y275725D01*
X237351Y275754D01*
X237373Y275798D01*
X237398Y275849D01*
X237420Y275915D01*
X237435Y275988D01*
X237442Y276071D01*
X237758Y276039D01*
Y276035D01*
X237755Y276024D01*
Y276006D01*
X237751Y275980D01*
X237744Y275951D01*
X237737Y275918D01*
X237726Y275878D01*
X237715Y275838D01*
X237686Y275751D01*
X237642Y275663D01*
X237617Y275620D01*
X237584Y275576D01*
X237551Y275536D01*
X237515Y275500D01*
X237511Y275496D01*
X237504Y275493D01*
X237493Y275482D01*
X237475Y275471D01*
X237453Y275456D01*
X237427Y275442D01*
X237398Y275423D01*
X237362Y275405D01*
X237322Y275387D01*
X237278Y275369D01*
X237231Y275354D01*
X237180Y275340D01*
X237125Y275329D01*
X237067Y275318D01*
X237005Y275314D01*
X236940Y275310D01*
X236903D01*
X236878Y275314D01*
X236848Y275318D01*
X236812Y275321D01*
X236772Y275329D01*
X236732Y275336D01*
X236637Y275361D01*
X236543Y275398D01*
X236495Y275420D01*
X236448Y275445D01*
X236404Y275478D01*
X236364Y275514D01*
X236361Y275518D01*
X236353Y275522D01*
X236346Y275536D01*
X236332Y275551D01*
X236314Y275569D01*
X236295Y275594D01*
X236277Y275620D01*
X236255Y275653D01*
X236219Y275722D01*
X236182Y275809D01*
X236168Y275853D01*
X236161Y275904D01*
X236153Y275955D01*
X236150Y276009D01*
Y276017D01*
Y276035D01*
X236153Y276064D01*
X236157Y276104D01*
X236164Y276148D01*
X236179Y276199D01*
X236193Y276253D01*
X236215Y276308D01*
X236219Y276315D01*
X236226Y276333D01*
X236241Y276362D01*
X236262Y276402D01*
X236292Y276446D01*
X236328Y276501D01*
X236372Y276555D01*
X236423Y276617D01*
X236430Y276624D01*
X236448Y276646D01*
X236466Y276664D01*
X236485Y276683D01*
X236506Y276705D01*
X236536Y276734D01*
X236565Y276763D01*
X236601Y276796D01*
X236637Y276832D01*
X236681Y276872D01*
X236728Y276912D01*
X236779Y276959D01*
X236838Y277007D01*
X236896Y277058D01*
X236899Y277061D01*
X236907Y277069D01*
X236921Y277080D01*
X236940Y277094D01*
X236961Y277116D01*
X236987Y277138D01*
X237045Y277185D01*
X237107Y277240D01*
X237165Y277294D01*
X237216Y277342D01*
X237238Y277360D01*
X237256Y277378D01*
X237260Y277382D01*
X237271Y277393D01*
X237285Y277407D01*
X237303Y277429D01*
X237322Y277454D01*
X237344Y277480D01*
X237387Y277542D01*
X236146D01*
Y277840D01*
X237817D01*
Y277837D01*
D02*
G37*
G36*
X177017Y277993D02*
X177050D01*
X177086Y277990D01*
X177130Y277986D01*
X177221Y277972D01*
X177316Y277957D01*
X177410Y277932D01*
X177501Y277899D01*
X177505D01*
X177512Y277895D01*
X177523Y277888D01*
X177538Y277881D01*
X177581Y277859D01*
X177632Y277826D01*
X177691Y277782D01*
X177752Y277731D01*
X177811Y277670D01*
X177865Y277600D01*
Y277597D01*
X177873Y277589D01*
X177876Y277578D01*
X177887Y277564D01*
X177894Y277546D01*
X177905Y277524D01*
X177931Y277469D01*
X177956Y277400D01*
X177978Y277324D01*
X177993Y277236D01*
X178000Y277145D01*
X177687Y277116D01*
Y277120D01*
Y277123D01*
X177683Y277134D01*
Y277149D01*
X177676Y277182D01*
X177665Y277229D01*
X177651Y277276D01*
X177636Y277331D01*
X177611Y277382D01*
X177585Y277429D01*
X177581Y277433D01*
X177570Y277448D01*
X177552Y277473D01*
X177523Y277498D01*
X177487Y277531D01*
X177447Y277564D01*
X177392Y277597D01*
X177334Y277626D01*
X177330D01*
X177327Y277629D01*
X177316Y277633D01*
X177305Y277637D01*
X177268Y277648D01*
X177221Y277662D01*
X177163Y277677D01*
X177097Y277688D01*
X177024Y277695D01*
X176944Y277699D01*
X176912D01*
X176875Y277695D01*
X176832Y277691D01*
X176781Y277684D01*
X176722Y277677D01*
X176664Y277662D01*
X176610Y277644D01*
X176602Y277640D01*
X176584Y277633D01*
X176559Y277619D01*
X176526Y277604D01*
X176493Y277578D01*
X176457Y277553D01*
X176420Y277524D01*
X176391Y277487D01*
X176388Y277484D01*
X176380Y277469D01*
X176369Y277451D01*
X176355Y277422D01*
X176340Y277393D01*
X176329Y277357D01*
X176322Y277316D01*
X176318Y277273D01*
Y277269D01*
Y277251D01*
X176322Y277229D01*
X176326Y277200D01*
X176337Y277171D01*
X176347Y277134D01*
X176366Y277098D01*
X176391Y277065D01*
X176395Y277062D01*
X176406Y277051D01*
X176420Y277036D01*
X176446Y277014D01*
X176475Y276993D01*
X176515Y276967D01*
X176562Y276941D01*
X176617Y276920D01*
X176620Y276916D01*
X176639Y276912D01*
X176668Y276902D01*
X176686Y276898D01*
X176711Y276891D01*
X176737Y276880D01*
X176770Y276872D01*
X176806Y276861D01*
X176850Y276851D01*
X176893Y276840D01*
X176944Y276825D01*
X177003Y276811D01*
X177065Y276796D01*
X177068D01*
X177079Y276792D01*
X177097Y276789D01*
X177119Y276781D01*
X177148Y276774D01*
X177181Y276767D01*
X177254Y276745D01*
X177334Y276719D01*
X177418Y276694D01*
X177490Y276669D01*
X177523Y276654D01*
X177552Y276639D01*
X177556D01*
X177560Y276636D01*
X177581Y276621D01*
X177614Y276603D01*
X177651Y276574D01*
X177694Y276541D01*
X177738Y276501D01*
X177782Y276454D01*
X177818Y276403D01*
X177822Y276396D01*
X177833Y276377D01*
X177847Y276348D01*
X177862Y276312D01*
X177876Y276265D01*
X177891Y276210D01*
X177902Y276152D01*
X177905Y276090D01*
Y276086D01*
Y276082D01*
Y276072D01*
Y276057D01*
X177898Y276021D01*
X177891Y275973D01*
X177880Y275919D01*
X177862Y275857D01*
X177836Y275795D01*
X177800Y275733D01*
Y275729D01*
X177796Y275726D01*
X177778Y275704D01*
X177752Y275675D01*
X177720Y275638D01*
X177676Y275598D01*
X177621Y275555D01*
X177556Y275515D01*
X177483Y275478D01*
X177480D01*
X177472Y275475D01*
X177461Y275471D01*
X177447Y275464D01*
X177428Y275456D01*
X177403Y275449D01*
X177348Y275435D01*
X177279Y275420D01*
X177199Y275405D01*
X177115Y275395D01*
X177021Y275391D01*
X176974D01*
X176948Y275395D01*
X176923D01*
X176853Y275402D01*
X176777Y275413D01*
X176697Y275431D01*
X176610Y275453D01*
X176530Y275482D01*
X176526D01*
X176519Y275485D01*
X176508Y275493D01*
X176493Y275500D01*
X176457Y275518D01*
X176409Y275551D01*
X176355Y275587D01*
X176300Y275635D01*
X176249Y275689D01*
X176202Y275751D01*
Y275755D01*
X176198Y275759D01*
X176191Y275769D01*
X176184Y275780D01*
X176165Y275817D01*
X176144Y275864D01*
X176118Y275922D01*
X176100Y275992D01*
X176082Y276064D01*
X176075Y276144D01*
X176395Y276170D01*
Y276166D01*
Y276159D01*
X176398Y276148D01*
X176402Y276130D01*
X176413Y276090D01*
X176427Y276035D01*
X176449Y275977D01*
X176482Y275919D01*
X176522Y275864D01*
X176573Y275813D01*
X176580Y275810D01*
X176599Y275795D01*
X176635Y275773D01*
X176682Y275751D01*
X176744Y275729D01*
X176817Y275708D01*
X176908Y275693D01*
X177010Y275689D01*
X177061D01*
X177083Y275693D01*
X177112Y275697D01*
X177177Y275704D01*
X177250Y275718D01*
X177323Y275737D01*
X177392Y275766D01*
X177421Y275784D01*
X177450Y275802D01*
X177458Y275806D01*
X177472Y275820D01*
X177494Y275846D01*
X177516Y275875D01*
X177541Y275915D01*
X177563Y275959D01*
X177578Y276010D01*
X177585Y276068D01*
Y276075D01*
Y276090D01*
X177581Y276115D01*
X177574Y276144D01*
X177563Y276181D01*
X177545Y276217D01*
X177523Y276254D01*
X177490Y276290D01*
X177487Y276294D01*
X177469Y276305D01*
X177454Y276315D01*
X177439Y276323D01*
X177418Y276334D01*
X177392Y276348D01*
X177359Y276359D01*
X177323Y276374D01*
X177283Y276388D01*
X177236Y276406D01*
X177185Y276421D01*
X177126Y276439D01*
X177061Y276454D01*
X176988Y276472D01*
X176985D01*
X176970Y276476D01*
X176948Y276479D01*
X176923Y276486D01*
X176890Y276494D01*
X176850Y276505D01*
X176810Y276516D01*
X176766Y276527D01*
X176671Y276552D01*
X176580Y276577D01*
X176537Y276592D01*
X176497Y276607D01*
X176460Y276618D01*
X176431Y276632D01*
X176427D01*
X176420Y276636D01*
X176409Y276643D01*
X176395Y276650D01*
X176355Y276672D01*
X176307Y276701D01*
X176253Y276741D01*
X176198Y276785D01*
X176147Y276836D01*
X176104Y276891D01*
X176100Y276898D01*
X176085Y276916D01*
X176071Y276949D01*
X176049Y276993D01*
X176031Y277043D01*
X176013Y277105D01*
X176002Y277174D01*
X175998Y277247D01*
Y277251D01*
Y277255D01*
Y277266D01*
Y277280D01*
X176005Y277320D01*
X176013Y277371D01*
X176027Y277429D01*
X176045Y277491D01*
X176075Y277557D01*
X176114Y277626D01*
Y277629D01*
X176118Y277633D01*
X176136Y277655D01*
X176162Y277688D01*
X176198Y277724D01*
X176246Y277768D01*
X176304Y277815D01*
X176369Y277859D01*
X176446Y277899D01*
X176449D01*
X176457Y277903D01*
X176468Y277906D01*
X176482Y277913D01*
X176504Y277921D01*
X176530Y277932D01*
X176588Y277946D01*
X176657Y277964D01*
X176741Y277983D01*
X176832Y277993D01*
X176930Y277997D01*
X176988D01*
X177017Y277993D01*
D02*
G37*
G36*
X174811Y275984D02*
X174815Y275988D01*
X174833Y276002D01*
X174855Y276024D01*
X174891Y276050D01*
X174932Y276082D01*
X174983Y276119D01*
X175041Y276159D01*
X175106Y276199D01*
X175110D01*
X175113Y276203D01*
X175135Y276217D01*
X175172Y276235D01*
X175215Y276257D01*
X175266Y276283D01*
X175321Y276308D01*
X175376Y276334D01*
X175430Y276356D01*
Y276057D01*
X175426D01*
X175419Y276050D01*
X175405Y276046D01*
X175387Y276035D01*
X175365Y276024D01*
X175339Y276010D01*
X175277Y275973D01*
X175205Y275933D01*
X175132Y275882D01*
X175055Y275824D01*
X174979Y275762D01*
X174975Y275759D01*
X174972Y275755D01*
X174961Y275744D01*
X174946Y275733D01*
X174913Y275697D01*
X174870Y275653D01*
X174826Y275602D01*
X174779Y275544D01*
X174739Y275485D01*
X174702Y275424D01*
X174502D01*
Y277953D01*
X174811D01*
Y275984D01*
D02*
G37*
D50*
X211169Y253278D02*
X269043D01*
X211169D02*
Y302490D01*
X269043D01*
Y253278D02*
Y302490D01*
X149063Y253391D02*
X206937D01*
X149063D02*
Y302603D01*
X206937D01*
Y253391D02*
Y302603D01*
%TF.MD5,bcb37f79fc41a49cdf2ba02f1a13ae54*%
M02*
