M48
;Layer_Color=9474304
;FILE_FORMAT=2:5
INCH,LZ
;TYPE=PLATED
T01F00S00C0.02800
T02F00S00C0.02992
T03F00S00C0.03228
T04F00S00C0.03307
T05F00S00C0.03346
T06F00S00C0.03543
T07F00S00C0.03740
T08F00S00C0.03800
T09F00S00C0.03937
T10F00S00C0.04134
T11F00S00C0.04213
T12F00S00C0.04331
T13F00S00C0.04724
T14F00S00C0.04921
T15F00S00C0.05118
T16F00S00C0.05591
;TYPE=NON_PLATED
T17F00S00C0.03543
T18F00S00C0.04567
T19F00S00C0.06000
T20F00S00C0.18750
%
T01
X00376Y01029
X00848Y00297
X0108Y0038
X0063313Y02695
X0058Y0277
X0051076Y03824
X00944Y03545
X01342Y03142
X01878Y03517
X021Y0341
X02231Y02748
X01893Y04377
X019485Y046035
X01635Y04642
X02079Y05035
X0244Y0599
T02
X0013Y001274
X0023
X0033
X0043
X0053
X0063
Y0044
X0053
X0043
X0033
X0023
X0013
X0073
X0083
X0093
X0103
X0113
X0123
Y001274
X0113
X0103
X0093
X0083
X0073
T03
X0178764Y0377
X0189
X0199236
T04
X0122Y0264266
X0132
X0029Y0366
X0019
X0122Y0308
X0132
Y0286133
X0122
T05
X02395Y03215
X02495
T06
X0126961Y03565
X0156961
X0218Y03595
Y03695
Y03795
Y03895
Y03995
Y04095
Y04195
Y04295
Y03495
X0288
Y03595
Y03695
Y03795
Y03895
Y03995
Y04095
Y04195
Y04295
Y04395
Y04495
Y04595
Y04695
Y04795
Y04895
Y04995
Y05095
Y05195
Y05295
Y05395
X0218
Y05295
Y05195
Y05095
Y04995
Y04895
Y04795
Y04695
Y04595
Y04495
Y04395
T07
X0012Y00685
X0022
X0032
X0042
X0052
X00675
X00775
X00875
X00975
X01075
X01225Y00695
X01325
X01425
X01525
X01625
X01775Y007
X01875
X01975
X02075
X02175
Y013
X02075
X01975
X01875
X01775
X01625Y01295
X01525
X01425
X01325
X01225
X01075Y01285
X00975
X00875
X00775
X00675
X0067Y01495
X0077
X0087
X0097
X0107
X01225
X01325
X01425
X01525
X01625
X0177Y015
X0187
X0197
X0207
X0217
Y021
X0207
X0197
X0187
X0177
X01625Y02095
X01525
X01425
X01325
X01225
X0107
X0097
X0087
X0077
X0067
X0052
X0042
X0032
X0022
X0012
Y01495
X0022
X0032
X0042
X0052
Y01285
X0042
X0032
X0022
X0012
T08
X0246Y0565
X0256
X0266
T09
X0224Y0569
X0204
X0148925Y0490575
X012924
X0070185
X00505
Y0589
X0148925
T10
X00125Y0388919
X008381Y0395988
X00975
X0112Y0396
Y0451512
X00975Y04515
X008381
X0072012Y0455716
X00165
X00125Y0444431
T11
X00245Y03135
Y03235
Y03335
Y03435
X02475Y06105
X02575
X02675
X02775
T12
X0024Y03847
X0079512
T13
X02075Y0602
X022128
T14
X0141Y00425
X0151
X0161
X0171
X0181
X01055Y02685
X0088Y0263
X0078
X0068
X0058
X0048
X0038
X01055Y02785
Y02885
Y02985
Y03085
Y03185
X02795Y0319345
Y0329345
Y0309345
Y0299345
Y0289345
T15
X0264713Y0268041
X02155
X0202606Y0268155
X0153394
Y028784
X0202606
X02155Y0287726
X0264713
T16
X0045112Y0427
X0055152
X0065191
T17
X0173985Y04225
T18
X0145442Y04225
T19
X0081Y0236
X0089
X0098
X0106
X0114
X0123
X0131
X014
X0148
T20
X0202Y0038
X0013Y0262
X0285Y0574
M30
