%TF.GenerationSoftware,Altium Limited,Altium Designer,24.3.1 (35)*%
G04 Layer_Color=0*
%FSLAX25Y25*%
%MOIN*%
%TF.SameCoordinates,1C50E6C9-DA4A-4B26-87AC-B265A0C711DB*%
%TF.FilePolarity,Positive*%
%TF.FileFunction,Plated,1,2,PTH,Drill*%
%TF.Part,Single*%
G01*
G75*
%TA.AperFunction,ComponentDrill*%
%ADD106C,0.03543*%
%ADD107C,0.02992*%
%ADD108C,0.03740*%
%ADD109C,0.04921*%
%ADD110C,0.04921*%
%ADD111C,0.03228*%
%ADD112C,0.03800*%
%ADD113C,0.03347*%
%ADD114C,0.04213*%
%ADD115C,0.03543*%
%ADD116C,0.05118*%
%ADD117C,0.03307*%
%ADD118C,0.04213*%
%ADD119C,0.04134*%
%ADD120C,0.04331*%
%ADD121C,0.05591*%
%ADD122C,0.04134*%
%ADD123C,0.03937*%
%ADD124C,0.04724*%
%TA.AperFunction,ViaDrill,NotFilled*%
%ADD125C,0.02800*%
D106*
X126961Y356500D02*
D03*
X156961D02*
D03*
D107*
X123000Y12740D02*
D03*
X113000D02*
D03*
X103000D02*
D03*
X93000D02*
D03*
X83000D02*
D03*
X73000D02*
D03*
X63000D02*
D03*
X53000D02*
D03*
X43000D02*
D03*
X33000D02*
D03*
X23000D02*
D03*
X13000D02*
D03*
Y44000D02*
D03*
X23000D02*
D03*
X33000D02*
D03*
X43000D02*
D03*
X53000D02*
D03*
X63000D02*
D03*
X73000D02*
D03*
X83000D02*
D03*
X93000D02*
D03*
X103000D02*
D03*
X113000D02*
D03*
X123000D02*
D03*
D108*
X12000Y68500D02*
D03*
X22000D02*
D03*
X32000D02*
D03*
X42000D02*
D03*
X52000D02*
D03*
Y128500D02*
D03*
X42000D02*
D03*
X32000D02*
D03*
X22000D02*
D03*
X12000D02*
D03*
X67500Y68500D02*
D03*
X77500D02*
D03*
X87500D02*
D03*
X97500D02*
D03*
X107500D02*
D03*
Y128500D02*
D03*
X97500D02*
D03*
X87500D02*
D03*
X77500D02*
D03*
X67500D02*
D03*
X177500Y70000D02*
D03*
X187500D02*
D03*
X197500D02*
D03*
X207500D02*
D03*
X217500D02*
D03*
Y130000D02*
D03*
X207500D02*
D03*
X197500D02*
D03*
X187500D02*
D03*
X177500D02*
D03*
X122500Y69500D02*
D03*
X132500D02*
D03*
X142500D02*
D03*
X152500D02*
D03*
X162500D02*
D03*
Y129500D02*
D03*
X152500D02*
D03*
X142500D02*
D03*
X132500D02*
D03*
X122500D02*
D03*
X177000Y150000D02*
D03*
X187000D02*
D03*
X197000D02*
D03*
X207000D02*
D03*
X217000D02*
D03*
Y210000D02*
D03*
X207000D02*
D03*
X197000D02*
D03*
X187000D02*
D03*
X177000D02*
D03*
X12000Y149500D02*
D03*
X22000D02*
D03*
X32000D02*
D03*
X42000D02*
D03*
X52000D02*
D03*
Y209500D02*
D03*
X42000D02*
D03*
X32000D02*
D03*
X22000D02*
D03*
X12000D02*
D03*
X122500Y149500D02*
D03*
X132500D02*
D03*
X142500D02*
D03*
X152500D02*
D03*
X162500D02*
D03*
Y209500D02*
D03*
X152500D02*
D03*
X142500D02*
D03*
X132500D02*
D03*
X122500D02*
D03*
X67000Y149500D02*
D03*
X77000D02*
D03*
X87000D02*
D03*
X97000D02*
D03*
X107000D02*
D03*
Y209500D02*
D03*
X97000D02*
D03*
X87000D02*
D03*
X77000D02*
D03*
X67000D02*
D03*
D109*
X181000Y42500D02*
D03*
X171000D02*
D03*
X161000D02*
D03*
X151000D02*
D03*
X141000D02*
D03*
X38000Y263000D02*
D03*
X48000D02*
D03*
X58000D02*
D03*
X68000D02*
D03*
X78000D02*
D03*
X88000D02*
D03*
D110*
X279500Y329345D02*
D03*
Y319345D02*
D03*
Y309345D02*
D03*
Y299345D02*
D03*
Y289345D02*
D03*
X105500Y268500D02*
D03*
Y278500D02*
D03*
Y288500D02*
D03*
Y298500D02*
D03*
Y308500D02*
D03*
Y318500D02*
D03*
D111*
X199236Y377000D02*
D03*
X189000D02*
D03*
X178764D02*
D03*
D112*
X266000Y565000D02*
D03*
X256000D02*
D03*
X246000D02*
D03*
D113*
X249500Y321500D02*
D03*
X239500D02*
D03*
D114*
X277500Y610500D02*
D03*
X267500D02*
D03*
X257500D02*
D03*
X247500D02*
D03*
D115*
X218000Y439500D02*
D03*
Y449500D02*
D03*
Y429500D02*
D03*
Y419500D02*
D03*
Y409500D02*
D03*
Y399500D02*
D03*
Y389500D02*
D03*
Y379500D02*
D03*
Y369500D02*
D03*
Y359500D02*
D03*
Y349500D02*
D03*
Y459500D02*
D03*
Y469500D02*
D03*
Y479500D02*
D03*
Y489500D02*
D03*
Y499500D02*
D03*
Y509500D02*
D03*
Y519500D02*
D03*
Y529500D02*
D03*
Y539500D02*
D03*
X288000Y439500D02*
D03*
Y449500D02*
D03*
Y429500D02*
D03*
Y419500D02*
D03*
Y409500D02*
D03*
Y399500D02*
D03*
Y389500D02*
D03*
Y379500D02*
D03*
Y369500D02*
D03*
Y359500D02*
D03*
Y349500D02*
D03*
Y459500D02*
D03*
Y469500D02*
D03*
Y479500D02*
D03*
Y489500D02*
D03*
Y499500D02*
D03*
Y509500D02*
D03*
Y519500D02*
D03*
Y529500D02*
D03*
Y539500D02*
D03*
D116*
X215500Y287726D02*
D03*
X264713D02*
D03*
X215500Y268041D02*
D03*
X264713D02*
D03*
X153394Y287840D02*
D03*
X202606D02*
D03*
X153394Y268155D02*
D03*
X202606D02*
D03*
D117*
X122000Y264266D02*
D03*
X132000D02*
D03*
X122000Y308000D02*
D03*
X132000D02*
D03*
X122000Y286133D02*
D03*
X132000D02*
D03*
X19000Y366000D02*
D03*
X29000D02*
D03*
D118*
X24500Y343500D02*
D03*
Y333500D02*
D03*
Y323500D02*
D03*
Y313500D02*
D03*
D119*
X112000Y396000D02*
D03*
Y451512D02*
D03*
X83810Y451500D02*
D03*
Y395988D02*
D03*
X97500D02*
D03*
Y451500D02*
D03*
X12500Y444431D02*
D03*
Y388919D02*
D03*
D120*
X79512Y384700D02*
D03*
X24000D02*
D03*
D121*
X65191Y427000D02*
D03*
X55152D02*
D03*
X45112D02*
D03*
D122*
X16500Y455716D02*
D03*
X72012D02*
D03*
D123*
X224000Y569000D02*
D03*
X204000D02*
D03*
X50500Y589000D02*
D03*
X148925D02*
D03*
Y490575D02*
D03*
X129240D02*
D03*
X70185D02*
D03*
X50500D02*
D03*
D124*
X221280Y602000D02*
D03*
X207500D02*
D03*
D125*
X244000Y599000D02*
D03*
X210000Y341000D02*
D03*
X108000Y38000D02*
D03*
X63313Y269500D02*
D03*
X37600Y102900D02*
D03*
X194850Y460350D02*
D03*
X134200Y314200D02*
D03*
X163500Y464200D02*
D03*
X58000Y277000D02*
D03*
X223100Y274800D02*
D03*
X207900Y503500D02*
D03*
X94400Y354500D02*
D03*
X84800Y29700D02*
D03*
X51076Y382400D02*
D03*
X189300Y437700D02*
D03*
X187800Y351700D02*
D03*
%TF.MD5,33ea3866b06ca986a4b1811d62ef3938*%
M02*
