%TF.GenerationSoftware,Altium Limited,Altium Designer,24.3.1 (35)*%
G04 Layer_Color=65535*
%FSLAX25Y25*%
%MOIN*%
%TF.SameCoordinates,1C50E6C9-DA4A-4B26-87AC-B265A0C711DB*%
%TF.FilePolarity,Positive*%
%TF.FileFunction,Legend,Top*%
%TF.Part,Single*%
G01*
G75*
%TA.AperFunction,NonConductor*%
%ADD50C,0.00787*%
%ADD51C,0.00394*%
%ADD52C,0.00500*%
%ADD53C,0.00600*%
%ADD54C,0.00984*%
%ADD55C,0.01000*%
D50*
X55197Y414890D02*
G03*
X55197Y414890I-197J0D01*
G01*
X199697Y465610D02*
G03*
X199697Y465610I-197J0D01*
G01*
X200166Y537390D02*
G03*
X200166Y537390I-197J0D01*
G01*
X199697Y507390D02*
G03*
X199697Y507390I-197J0D01*
G01*
X196197Y356933D02*
G03*
X196197Y356933I-197J0D01*
G01*
X246307Y592500D02*
G03*
X246307Y592500I-197J0D01*
G01*
X287087D02*
G03*
X287087Y592500I-197J0D01*
G01*
X230051Y321500D02*
G03*
X230839Y321500I394J0D01*
G01*
D02*
G03*
X230051Y321500I-394J0D01*
G01*
X183697Y321567D02*
G03*
X183697Y321567I-197J0D01*
G01*
X66264Y279000D02*
G03*
X66264Y279000I-197J0D01*
G01*
X195850Y312000D02*
G03*
X195850Y312000I-197J0D01*
G01*
X196307Y330000D02*
G03*
X196307Y330000I-197J0D01*
G01*
X168807Y311500D02*
G03*
X168807Y311500I-197J0D01*
G01*
X218394Y339185D02*
G03*
X218394Y339185I-394J0D01*
G01*
X67307Y307500D02*
G03*
X67307Y307500I-197J0D01*
G01*
X13197Y297390D02*
G03*
X13197Y297390I-197J0D01*
G01*
X39307Y307500D02*
G03*
X39307Y307500I-197J0D01*
G01*
X45264Y292993D02*
G03*
X45264Y292993I-197J0D01*
G01*
X202332Y422500D02*
G03*
X201938Y422500I-197J0D01*
G01*
D02*
G03*
X202332Y422500I197J0D01*
G01*
D02*
G03*
X201938Y422500I-197J0D01*
G01*
X88587Y322000D02*
G03*
X88587Y322000I-197J0D01*
G01*
X28697Y297390D02*
G03*
X28697Y297390I-197J0D01*
G01*
X73307Y293500D02*
G03*
X73307Y293500I-197J0D01*
G01*
X38807Y279000D02*
G03*
X38807Y279000I-197J0D01*
G01*
X59587Y321500D02*
G03*
X59587Y321500I-197J0D01*
G01*
X108087Y370000D02*
G03*
X108087Y370000I-197J0D01*
G01*
Y384310D02*
G03*
X108087Y384310I-197J0D01*
G01*
X41204Y401110D02*
G03*
X41204Y401110I-197J0D01*
G01*
X26296Y428567D02*
G03*
X26296Y428567I-197J0D01*
G01*
X69697Y414890D02*
G03*
X69697Y414890I-197J0D01*
G01*
X27197Y401110D02*
G03*
X27197Y401110I-197J0D01*
G01*
X194945Y569000D02*
G03*
X195339Y569000I197J0D01*
G01*
D02*
G03*
X194945Y569000I-197J0D01*
G01*
D02*
G03*
X195339Y569000I197J0D01*
G01*
X50106Y614591D02*
G03*
X50894Y614591I394J0D01*
G01*
D02*
G03*
X50106Y614591I-394J0D01*
G01*
X57492Y60508D02*
Y136492D01*
X6508Y60508D02*
Y136492D01*
Y60508D02*
X12000D01*
X112992D02*
Y136492D01*
X62008Y60508D02*
Y136492D01*
Y60508D02*
X67500D01*
X222992Y62008D02*
Y137992D01*
X172008Y62008D02*
Y137992D01*
Y62008D02*
X177500D01*
X167992Y61508D02*
Y137492D01*
X117008Y61508D02*
Y137492D01*
Y61508D02*
X122500D01*
X222492Y142008D02*
Y217992D01*
X171508Y142008D02*
Y217992D01*
Y142008D02*
X177000D01*
X57492Y141508D02*
Y217492D01*
X6508Y141508D02*
Y217492D01*
Y141508D02*
X12000D01*
X167992D02*
Y217492D01*
X117008Y141508D02*
Y217492D01*
Y141508D02*
X122500D01*
X112492D02*
Y217492D01*
X61508Y141508D02*
Y217492D01*
Y141508D02*
X67000D01*
X274283Y283361D02*
X279500D01*
X274283D02*
Y336314D01*
X284421D01*
Y289345D02*
Y336314D01*
X198370Y381055D02*
Y382630D01*
X179630D02*
X198370D01*
X179630Y381055D02*
Y382630D01*
X110421Y268500D02*
Y325469D01*
X100283D02*
X110421D01*
X100283Y262516D02*
Y325469D01*
Y262516D02*
X105500D01*
X215894Y253671D02*
X264319D01*
X215894Y293140D02*
Y302097D01*
Y273455D02*
Y282313D01*
Y253671D02*
Y262628D01*
Y302097D02*
X264319D01*
Y293140D02*
Y302097D01*
Y273455D02*
Y282313D01*
Y253671D02*
Y262628D01*
X153787Y253784D02*
X202213D01*
X153787Y293253D02*
Y302210D01*
Y273568D02*
Y282426D01*
Y253784D02*
Y262741D01*
Y302210D02*
X202213D01*
Y293253D02*
Y302210D01*
Y273568D02*
Y282426D01*
Y253784D02*
Y262741D01*
X38000Y258079D02*
X94969D01*
Y268217D01*
X32016D02*
X94969D01*
X32016Y263000D02*
Y268217D01*
X89701Y361420D02*
X102299D01*
Y342129D02*
Y361420D01*
X89701Y342129D02*
X102299D01*
X89701D02*
Y361420D01*
X82417Y361932D02*
X88323D01*
X38418Y330657D02*
Y338236D01*
X38300Y339614D02*
X78851D01*
Y366386D01*
X38300D02*
X78851D01*
X38300Y339614D02*
Y366386D01*
X112000Y400480D02*
Y414602D01*
Y432909D02*
Y447032D01*
Y432909D02*
X116626Y428283D01*
X107374Y432909D02*
X116626D01*
X107374Y414602D02*
Y432909D01*
Y414602D02*
X116626D01*
Y432909D01*
X83810Y432898D02*
Y447020D01*
Y400469D02*
Y414591D01*
X79184Y419217D02*
X83810Y414591D01*
X79184D02*
X88436D01*
Y432898D01*
X79184D02*
X88436D01*
X79184Y414591D02*
Y432898D01*
X42504Y380074D02*
X61008D01*
X42504D02*
Y389326D01*
X61008D01*
Y380074D02*
Y389326D01*
X56382Y380074D02*
X61008Y384700D01*
X74886D01*
X28626D02*
X42504D01*
X97500Y400469D02*
Y414591D01*
Y432898D02*
Y447020D01*
Y432898D02*
X102126Y428272D01*
X92874Y432898D02*
X102126D01*
X92874Y414591D02*
Y432898D01*
Y414591D02*
X102126D01*
Y432898D01*
X34679Y427000D02*
Y439205D01*
X75624D01*
Y421094D02*
Y439205D01*
X12500Y425829D02*
Y439951D01*
Y393400D02*
Y407522D01*
X7874Y412148D02*
X12500Y407522D01*
X7874D02*
X17126D01*
Y425829D01*
X7874D02*
X17126D01*
X7874Y407522D02*
Y425829D01*
X20980Y455716D02*
X35102D01*
X53409D02*
X67532D01*
X48783Y451090D02*
X53409Y455716D01*
Y451090D02*
Y460342D01*
X35102D02*
X53409D01*
X35102Y451090D02*
Y460342D01*
Y451090D02*
X53409D01*
X198445Y587827D02*
Y615386D01*
Y587827D02*
X230335D01*
Y615386D01*
X198445D02*
X230335D01*
D51*
X203567Y377000D02*
G03*
X203961Y377000I197J0D01*
G01*
D02*
G03*
X203567Y377000I-197J0D01*
G01*
X255917Y321500D02*
G03*
X233083Y321500I-11417J0D01*
G01*
D02*
G03*
X255917Y321500I11417J0D01*
G01*
X117551Y264266D02*
G03*
X117551Y264659I0J197D01*
G01*
D02*
G03*
X117551Y264266I0J-197D01*
G01*
Y308000D02*
G03*
X117551Y308394I0J197D01*
G01*
D02*
G03*
X117551Y308000I0J-197D01*
G01*
Y286133D02*
G03*
X117551Y286527I0J197D01*
G01*
D02*
G03*
X117551Y286133I0J-197D01*
G01*
X14551Y366000D02*
G03*
X14551Y366394I0J197D01*
G01*
D02*
G03*
X14551Y366000I0J-197D01*
G01*
X196083Y602000D02*
G03*
X195689Y602000I-197J0D01*
G01*
D02*
G03*
X196083Y602000I197J0D01*
G01*
X241516Y605579D02*
Y615421D01*
Y605579D02*
X283484D01*
Y615421D01*
X241516D02*
X283484D01*
X19579Y307516D02*
X29421D01*
Y349484D01*
X19579D02*
X29421D01*
X19579Y307516D02*
Y349484D01*
X197563Y560535D02*
Y577465D01*
Y560535D02*
X230437D01*
Y577465D01*
X197563D02*
X230437D01*
X13098Y612622D02*
X186327D01*
Y466953D02*
Y612622D01*
X13098Y466953D02*
X186327D01*
X13098D02*
Y612622D01*
D52*
X165584Y356500D02*
G03*
X165584Y356500I-23622J0D01*
G01*
X213039Y342138D02*
Y546862D01*
X292961D01*
Y342138D02*
Y546862D01*
X213039Y342138D02*
X292961D01*
D53*
X237800Y564800D02*
G03*
X237800Y564800I-800J0D01*
G01*
X268300Y568526D02*
Y581400D01*
X243700Y558400D02*
Y560790D01*
Y569210D02*
Y581400D01*
X268300D01*
Y558400D02*
Y561474D01*
X243700Y558400D02*
X268300D01*
D54*
X209890Y287726D02*
G03*
X209890Y287726I-492J0D01*
G01*
X147784Y287840D02*
G03*
X147784Y287840I-492J0D01*
G01*
D55*
X259997Y539000D02*
X253999D01*
X256998D01*
Y535001D01*
X259997D01*
X253999D01*
Y532002D02*
Y530003D01*
X254999Y529003D01*
X256998D01*
X257998Y530003D01*
Y532002D01*
X256998Y533002D01*
X254999D01*
X253999Y532002D01*
X252000Y525004D02*
Y524005D01*
X253000Y523005D01*
X257998D01*
Y526004D01*
X256998Y527004D01*
X254999D01*
X253999Y526004D01*
Y523005D01*
Y518007D02*
Y520006D01*
X254999Y521006D01*
X256998D01*
X257998Y520006D01*
Y518007D01*
X256998Y517007D01*
X255999D01*
Y521006D01*
X253999Y515008D02*
Y512009D01*
X254999Y511009D01*
X255999Y512009D01*
Y514008D01*
X256998Y515008D01*
X257998Y514008D01*
Y511009D01*
Y505011D02*
Y508010D01*
X256998Y509010D01*
X254999D01*
X253999Y508010D01*
Y505011D01*
X259997Y503012D02*
X253999D01*
X256998D01*
X257998Y502012D01*
Y500013D01*
X256998Y499013D01*
X253999D01*
Y496014D02*
Y494015D01*
X254999Y493015D01*
X256998D01*
X257998Y494015D01*
Y496014D01*
X256998Y497014D01*
X254999D01*
X253999Y496014D01*
Y490016D02*
Y488017D01*
X254999Y487017D01*
X256998D01*
X257998Y488017D01*
Y490016D01*
X256998Y491015D01*
X254999D01*
X253999Y490016D01*
Y485017D02*
Y483018D01*
Y484018D01*
X259997D01*
Y485017D01*
X253999Y474021D02*
X259997D01*
Y471022D01*
X258998Y470022D01*
X256998D01*
X255999Y471022D01*
Y474021D01*
X259997Y468023D02*
X253999Y464024D01*
X259997D02*
X253999Y468023D01*
X259997Y462025D02*
X253999D01*
Y458026D01*
X267998Y535501D02*
X268998Y536501D01*
Y538500D01*
X267998Y539500D01*
X266999D01*
X265999Y538500D01*
Y536501D01*
X264999Y535501D01*
X264000D01*
X263000Y536501D01*
Y538500D01*
X264000Y539500D01*
X267998Y532502D02*
X266999D01*
Y533502D01*
Y531503D01*
Y532502D01*
X264000D01*
X263000Y531503D01*
X266999Y528504D02*
X264000D01*
X263000Y527504D01*
Y524505D01*
X266999D01*
X268998Y518507D02*
X263000D01*
Y521506D01*
X264000Y522506D01*
X265999D01*
X266999Y521506D01*
Y518507D01*
X263000Y513508D02*
Y515508D01*
X264000Y516507D01*
X265999D01*
X266999Y515508D01*
Y513508D01*
X265999Y512509D01*
X264999D01*
Y516507D01*
X263000Y510509D02*
X266999D01*
Y507510D01*
X265999Y506511D01*
X263000D01*
X267998Y503512D02*
X266999D01*
Y504511D01*
Y502512D01*
Y503512D01*
X264000D01*
X263000Y502512D01*
X268998Y489516D02*
Y493515D01*
X263000D01*
Y489516D01*
X265999Y493515D02*
Y491515D01*
X263000Y487517D02*
Y485518D01*
Y486517D01*
X268998D01*
Y487517D01*
X263000Y479519D02*
Y481519D01*
X264000Y482518D01*
X265999D01*
X266999Y481519D01*
Y479519D01*
X265999Y478520D01*
X264999D01*
Y482518D01*
X263000Y476520D02*
X268998D01*
X264999D02*
X266999Y473521D01*
X264999Y476520D02*
X263000Y473521D01*
X267998Y469523D02*
X266999D01*
Y470522D01*
Y468523D01*
Y469523D01*
X264000D01*
X263000Y468523D01*
X266999Y465524D02*
X263000D01*
X264999D01*
X265999Y464524D01*
X266999Y463525D01*
Y462525D01*
X263000Y458526D02*
Y456527D01*
X264000Y455527D01*
X265999D01*
X266999Y456527D01*
Y458526D01*
X265999Y459526D01*
X264000D01*
X263000Y458526D01*
Y453528D02*
X266999D01*
Y450529D01*
X265999Y449529D01*
X263000D01*
Y447530D02*
Y445530D01*
Y446530D01*
X266999D01*
Y447530D01*
Y438533D02*
Y441532D01*
X265999Y442531D01*
X264000D01*
X263000Y441532D01*
Y438533D01*
X266999Y435534D02*
Y433534D01*
X265999Y432535D01*
X263000D01*
Y435534D01*
X264000Y436533D01*
X264999Y435534D01*
Y432535D01*
X268998Y424537D02*
Y422538D01*
Y423537D01*
X263000D01*
Y424537D01*
Y422538D01*
X267998Y415540D02*
X268998Y416540D01*
Y418539D01*
X267998Y419539D01*
X264000D01*
X263000Y418539D01*
Y416540D01*
X264000Y415540D01*
X268998Y413541D02*
Y409542D01*
Y411541D01*
X263000D01*
X278498Y536501D02*
Y538500D01*
X277498Y539500D01*
X273500D01*
X272500Y538500D01*
Y536501D01*
X273500Y535501D01*
X277498D01*
X278498Y536501D01*
X272500Y533502D02*
Y531503D01*
Y532502D01*
X278498D01*
Y533502D01*
X272500Y528504D02*
Y526504D01*
Y527504D01*
X276499D01*
Y528504D01*
Y523505D02*
X273500D01*
X272500Y522506D01*
X273500Y521506D01*
X272500Y520506D01*
X273500Y519507D01*
X276499D01*
X272500Y517507D02*
Y515508D01*
Y516507D01*
X276499D01*
Y517507D01*
X272500Y509510D02*
Y511509D01*
X273500Y512509D01*
X275499D01*
X276499Y511509D01*
Y509510D01*
X275499Y508510D01*
X274499D01*
Y512509D01*
X276499Y506511D02*
X272500D01*
X274499D01*
X275499Y505511D01*
X276499Y504511D01*
Y503512D01*
X278498Y490516D02*
Y492515D01*
Y491515D01*
X273500D01*
X272500Y492515D01*
Y493515D01*
X273500Y494515D01*
X276499Y487517D02*
Y485518D01*
X275499Y484518D01*
X272500D01*
Y487517D01*
X273500Y488517D01*
X274499Y487517D01*
Y484518D01*
X276499Y482518D02*
X273500D01*
X272500Y481519D01*
X273500Y480519D01*
X272500Y479519D01*
X273500Y478520D01*
X276499D01*
X272500Y475521D02*
Y473521D01*
X273500Y472522D01*
X275499D01*
X276499Y473521D01*
Y475521D01*
X275499Y476520D01*
X273500D01*
X272500Y475521D01*
X276499Y470522D02*
X272500D01*
X274499D01*
X275499Y469523D01*
X276499Y468523D01*
Y467523D01*
X272500Y464524D02*
Y461525D01*
X273500Y460526D01*
X274499Y461525D01*
Y463525D01*
X275499Y464524D01*
X276499Y463525D01*
Y460526D01*
X272500Y458526D02*
X278498D01*
X274499D02*
X276499Y455527D01*
X274499Y458526D02*
X272500Y455527D01*
Y452528D02*
Y450529D01*
Y451529D01*
X276499D01*
Y452528D01*
X111795Y356756D02*
X115137D01*
X113466Y358427D02*
Y355085D01*
X167918Y356755D02*
X171256D01*
X10168Y620999D02*
X12833D01*
X11501D01*
Y617001D01*
X16832D02*
X14166D01*
X16832Y619666D01*
Y620333D01*
X16166Y620999D01*
X14833D01*
X14166Y620333D01*
X164834Y385499D02*
X167500D01*
X166167D01*
Y381501D01*
X168833D02*
X170166D01*
X169499D01*
Y385499D01*
X168833Y384833D01*
X214834Y249833D02*
X214167Y250499D01*
X212834D01*
X212168Y249833D01*
Y249166D01*
X212834Y248500D01*
X214167D01*
X214834Y247834D01*
Y247167D01*
X214167Y246501D01*
X212834D01*
X212168Y247167D01*
X218832Y246501D02*
X216166D01*
X218832Y249166D01*
Y249833D01*
X218166Y250499D01*
X216833D01*
X216166Y249833D01*
X152500Y249330D02*
X151833Y249996D01*
X150501D01*
X149834Y249330D01*
Y248663D01*
X150501Y247997D01*
X151833D01*
X152500Y247331D01*
Y246664D01*
X151833Y245998D01*
X150501D01*
X149834Y246664D01*
X153833Y245998D02*
X155166D01*
X154499D01*
Y249996D01*
X153833Y249330D01*
X60499Y303002D02*
X56501D01*
Y305001D01*
X57167Y305667D01*
X58500D01*
X59166Y305001D01*
Y303002D01*
Y304334D02*
X60499Y305667D01*
Y307000D02*
Y308333D01*
Y307667D01*
X56501D01*
X57167Y307000D01*
X59833Y310333D02*
X60499Y310999D01*
Y312332D01*
X59833Y312998D01*
X57167D01*
X56501Y312332D01*
Y310999D01*
X57167Y310333D01*
X57834D01*
X58500Y310999D01*
Y312998D01*
X23002Y275501D02*
Y279499D01*
X25001D01*
X25667Y278833D01*
Y277500D01*
X25001Y276834D01*
X23002D01*
X24335D02*
X25667Y275501D01*
X27000D02*
X28333D01*
X27667D01*
Y279499D01*
X27000Y278833D01*
X30333D02*
X30999Y279499D01*
X32332D01*
X32998Y278833D01*
Y278166D01*
X32332Y277500D01*
X32998Y276834D01*
Y276167D01*
X32332Y275501D01*
X30999D01*
X30333Y276167D01*
Y276834D01*
X30999Y277500D01*
X30333Y278166D01*
Y278833D01*
X30999Y277500D02*
X32332D01*
X8002Y275001D02*
Y278999D01*
X10001D01*
X10667Y278333D01*
Y277000D01*
X10001Y276334D01*
X8002D01*
X9335D02*
X10667Y275001D01*
X12000D02*
X13333D01*
X12667D01*
Y278999D01*
X12000Y278333D01*
X15333Y278999D02*
X17998D01*
Y278333D01*
X15333Y275667D01*
Y275001D01*
X60499Y274502D02*
X56501D01*
Y276501D01*
X57167Y277167D01*
X58500D01*
X59166Y276501D01*
Y274502D01*
Y275834D02*
X60499Y277167D01*
Y278500D02*
Y279833D01*
Y279167D01*
X56501D01*
X57167Y278500D01*
X56501Y284498D02*
X57167Y283166D01*
X58500Y281833D01*
X59833D01*
X60499Y282499D01*
Y283832D01*
X59833Y284498D01*
X59166D01*
X58500Y283832D01*
Y281833D01*
X115499Y379502D02*
X111501D01*
Y381501D01*
X112167Y382167D01*
X113500D01*
X114166Y381501D01*
Y379502D01*
Y380835D02*
X115499Y382167D01*
Y383500D02*
Y384833D01*
Y384167D01*
X111501D01*
X112167Y383500D01*
X115499Y388832D02*
X111501D01*
X113500Y386833D01*
Y389498D01*
X96345Y317002D02*
X92346D01*
Y319001D01*
X93012Y319667D01*
X94345D01*
X95012Y319001D01*
Y317002D01*
Y318335D02*
X96345Y319667D01*
Y321000D02*
Y322333D01*
Y321667D01*
X92346D01*
X93012Y321000D01*
Y324333D02*
X92346Y324999D01*
Y326332D01*
X93012Y326998D01*
X93679D01*
X94345Y326332D01*
Y325665D01*
Y326332D01*
X95012Y326998D01*
X95678D01*
X96345Y326332D01*
Y324999D01*
X95678Y324333D01*
X66413Y288495D02*
X62414D01*
Y290494D01*
X63081Y291161D01*
X64413D01*
X65080Y290494D01*
Y288495D01*
Y289828D02*
X66413Y291161D01*
Y292494D02*
Y293826D01*
Y293160D01*
X62414D01*
X63081Y292494D01*
X66413Y298492D02*
Y295826D01*
X63747Y298492D01*
X63081D01*
X62414Y297825D01*
Y296492D01*
X63081Y295826D01*
X88999Y303168D02*
X85001D01*
Y305167D01*
X85667Y305834D01*
X87000D01*
X87666Y305167D01*
Y303168D01*
Y304501D02*
X88999Y305834D01*
Y307167D02*
Y308500D01*
Y307833D01*
X85001D01*
X85667Y307167D01*
X88999Y310499D02*
Y311832D01*
Y311165D01*
X85001D01*
X85667Y310499D01*
X94543Y288502D02*
X90544D01*
Y290501D01*
X91210Y291167D01*
X92543D01*
X93210Y290501D01*
Y288502D01*
Y289834D02*
X94543Y291167D01*
Y292500D02*
Y293833D01*
Y293167D01*
X90544D01*
X91210Y292500D01*
Y295833D02*
X90544Y296499D01*
Y297832D01*
X91210Y298498D01*
X93876D01*
X94543Y297832D01*
Y296499D01*
X93876Y295833D01*
X91210D01*
X196168Y484001D02*
Y487999D01*
X198167D01*
X198834Y487333D01*
Y486000D01*
X198167Y485334D01*
X196168D01*
X197501D02*
X198834Y484001D01*
X200167Y484667D02*
X200833Y484001D01*
X202166D01*
X202832Y484667D01*
Y487333D01*
X202166Y487999D01*
X200833D01*
X200167Y487333D01*
Y486666D01*
X200833Y486000D01*
X202832D01*
X209999Y345088D02*
X204001D01*
Y348087D01*
X205001Y349087D01*
X207000D01*
X208000Y348087D01*
Y345088D01*
Y347088D02*
X209999Y349087D01*
X205001Y351086D02*
X204001Y352086D01*
Y354085D01*
X205001Y355085D01*
X206000D01*
X207000Y354085D01*
X208000Y355085D01*
X208999D01*
X209999Y354085D01*
Y352086D01*
X208999Y351086D01*
X208000D01*
X207000Y352086D01*
X206000Y351086D01*
X205001D01*
X207000Y352086D02*
Y354085D01*
X242542Y587146D02*
X236544D01*
Y590145D01*
X237544Y591145D01*
X239543D01*
X240543Y590145D01*
Y587146D01*
Y589146D02*
X242542Y591145D01*
X236544Y593144D02*
Y597143D01*
X237544D01*
X241543Y593144D01*
X242542D01*
X269042Y588002D02*
X263044D01*
Y591001D01*
X264044Y592000D01*
X266043D01*
X267043Y591001D01*
Y588002D01*
Y590001D02*
X269042Y592000D01*
X263044Y597998D02*
X264044Y595999D01*
X266043Y594000D01*
X268043D01*
X269042Y594999D01*
Y596999D01*
X268043Y597998D01*
X267043D01*
X266043Y596999D01*
Y594000D01*
X87999Y276168D02*
X84001D01*
Y278167D01*
X84667Y278834D01*
X86000D01*
X86666Y278167D01*
Y276168D01*
Y277501D02*
X87999Y278834D01*
X84001Y282832D02*
Y280167D01*
X86000D01*
X85334Y281499D01*
Y282166D01*
X86000Y282832D01*
X87333D01*
X87999Y282166D01*
Y280833D01*
X87333Y280167D01*
X175499Y325168D02*
X171501D01*
Y327167D01*
X172167Y327834D01*
X173500D01*
X174167Y327167D01*
Y325168D01*
Y326501D02*
X175499Y327834D01*
Y331166D02*
X171501D01*
X173500Y329167D01*
Y331832D01*
X190499Y308168D02*
X186501D01*
Y310167D01*
X187167Y310834D01*
X188500D01*
X189166Y310167D01*
Y308168D01*
Y309501D02*
X190499Y310834D01*
X187167Y312167D02*
X186501Y312833D01*
Y314166D01*
X187167Y314832D01*
X187833D01*
X188500Y314166D01*
Y313499D01*
Y314166D01*
X189166Y314832D01*
X189833D01*
X190499Y314166D01*
Y312833D01*
X189833Y312167D01*
X220586Y308002D02*
X214588D01*
Y311001D01*
X215587Y312000D01*
X217587D01*
X218586Y311001D01*
Y308002D01*
Y310001D02*
X220586Y312000D01*
Y317998D02*
Y314000D01*
X216587Y317998D01*
X215587D01*
X214588Y316999D01*
Y314999D01*
X215587Y314000D01*
X274003Y552001D02*
Y557999D01*
X276003Y556000D01*
X278002Y557999D01*
Y552001D01*
X283000Y557999D02*
X281001D01*
X280001Y556999D01*
Y553001D01*
X281001Y552001D01*
X283000D01*
X284000Y553001D01*
Y556999D01*
X283000Y557999D01*
X285999D02*
Y552001D01*
X288998D01*
X289998Y553001D01*
Y556999D01*
X288998Y557999D01*
X285999D01*
X291997Y552001D02*
X293997D01*
X292997D01*
Y557999D01*
X291997Y556999D01*
X182504Y58499D02*
Y52501D01*
X186503D01*
X192501Y58499D02*
X188502D01*
Y52501D01*
X192501D01*
X188502Y55500D02*
X190502D01*
X194501Y58499D02*
Y52501D01*
X197500D01*
X198499Y53501D01*
Y57499D01*
X197500Y58499D01*
X194501D01*
X200499Y52501D02*
X202498D01*
X201498D01*
Y58499D01*
X200499Y57499D01*
X209496Y52501D02*
X205497D01*
X209496Y56500D01*
Y57499D01*
X208496Y58499D01*
X206497D01*
X205497Y57499D01*
X130404Y60168D02*
Y54170D01*
X134403D01*
X140401Y60168D02*
X136402D01*
Y54170D01*
X140401D01*
X136402Y57169D02*
X138401D01*
X142400Y60168D02*
Y54170D01*
X145399D01*
X146399Y55170D01*
Y59169D01*
X145399Y60168D01*
X142400D01*
X148398Y54170D02*
X150398D01*
X149398D01*
Y60168D01*
X148398Y59169D01*
X153397Y54170D02*
X155396D01*
X154396D01*
Y60168D01*
X153397Y59169D01*
X74004Y56999D02*
Y51001D01*
X78003D01*
X84001Y56999D02*
X80002D01*
Y51001D01*
X84001D01*
X80002Y54000D02*
X82002D01*
X86001Y56999D02*
Y51001D01*
X88999D01*
X89999Y52001D01*
Y55999D01*
X88999Y56999D01*
X86001D01*
X91999Y51001D02*
X93998D01*
X92998D01*
Y56999D01*
X91999Y55999D01*
X96997D02*
X97997Y56999D01*
X99996D01*
X100996Y55999D01*
Y52001D01*
X99996Y51001D01*
X97997D01*
X96997Y52001D01*
Y55999D01*
X20504Y56650D02*
Y50652D01*
X24502D01*
X30500Y56650D02*
X26502D01*
Y50652D01*
X30500D01*
X26502Y53651D02*
X28501D01*
X32500Y56650D02*
Y50652D01*
X35499D01*
X36498Y51651D01*
Y55650D01*
X35499Y56650D01*
X32500D01*
X38498Y51651D02*
X39497Y50652D01*
X41497D01*
X42496Y51651D01*
Y55650D01*
X41497Y56650D01*
X39497D01*
X38498Y55650D01*
Y54650D01*
X39497Y53651D01*
X42496D01*
X185504Y227499D02*
Y221501D01*
X189502D01*
X195500Y227499D02*
X191502D01*
Y221501D01*
X195500D01*
X191502Y224500D02*
X193501D01*
X197500Y227499D02*
Y221501D01*
X200499D01*
X201498Y222501D01*
Y226499D01*
X200499Y227499D01*
X197500D01*
X203498Y226499D02*
X204497Y227499D01*
X206497D01*
X207497Y226499D01*
Y225500D01*
X206497Y224500D01*
X207497Y223500D01*
Y222501D01*
X206497Y221501D01*
X204497D01*
X203498Y222501D01*
Y223500D01*
X204497Y224500D01*
X203498Y225500D01*
Y226499D01*
X204497Y224500D02*
X206497D01*
X130504Y226499D02*
Y220501D01*
X134502D01*
X140500Y226499D02*
X136502D01*
Y220501D01*
X140500D01*
X136502Y223500D02*
X138501D01*
X142500Y226499D02*
Y220501D01*
X145499D01*
X146498Y221501D01*
Y225499D01*
X145499Y226499D01*
X142500D01*
X148498D02*
X152497D01*
Y225499D01*
X148498Y221501D01*
Y220501D01*
X73353Y227499D02*
Y221501D01*
X77352D01*
X83350Y227499D02*
X79351D01*
Y221501D01*
X83350D01*
X79351Y224500D02*
X81350D01*
X85349Y227499D02*
Y221501D01*
X88348D01*
X89348Y222501D01*
Y226499D01*
X88348Y227499D01*
X85349D01*
X95346D02*
X93347Y226499D01*
X91347Y224500D01*
Y222501D01*
X92347Y221501D01*
X94346D01*
X95346Y222501D01*
Y223500D01*
X94346Y224500D01*
X91347D01*
X18004Y226999D02*
Y221001D01*
X22002D01*
X28000Y226999D02*
X24002D01*
Y221001D01*
X28000D01*
X24002Y224000D02*
X26001D01*
X30000Y226999D02*
Y221001D01*
X32999D01*
X33998Y222001D01*
Y225999D01*
X32999Y226999D01*
X30000D01*
X39996D02*
X35998D01*
Y224000D01*
X37997Y225000D01*
X38997D01*
X39996Y224000D01*
Y222001D01*
X38997Y221001D01*
X36997D01*
X35998Y222001D01*
X264501Y313669D02*
X268499D01*
Y316335D01*
X264501Y320334D02*
Y317668D01*
X268499D01*
Y320334D01*
X266500Y317668D02*
Y319001D01*
X264501Y321667D02*
X268499D01*
Y323666D01*
X267833Y324332D01*
X265167D01*
X264501Y323666D01*
Y321667D01*
X268499Y327664D02*
X264501D01*
X266500Y325665D01*
Y328331D01*
X140001Y258935D02*
X143999D01*
Y261601D01*
X140001Y265599D02*
Y262933D01*
X143999D01*
Y265599D01*
X142000Y262933D02*
Y264266D01*
X140001Y266932D02*
X143999D01*
Y268932D01*
X143333Y269598D01*
X140667D01*
X140001Y268932D01*
Y266932D01*
X140667Y270931D02*
X140001Y271597D01*
Y272930D01*
X140667Y273597D01*
X141333D01*
X142000Y272930D01*
Y272264D01*
Y272930D01*
X142666Y273597D01*
X143333D01*
X143999Y272930D01*
Y271597D01*
X143333Y270931D01*
X140501Y280169D02*
X144499D01*
Y282835D01*
X140501Y286834D02*
Y284168D01*
X144499D01*
Y286834D01*
X142500Y284168D02*
Y285501D01*
X140501Y288166D02*
X144499D01*
Y290166D01*
X143833Y290832D01*
X141167D01*
X140501Y290166D01*
Y288166D01*
X144499Y294831D02*
Y292165D01*
X141833Y294831D01*
X141167D01*
X140501Y294164D01*
Y292832D01*
X141167Y292165D01*
X140001Y304836D02*
X143999D01*
Y307501D01*
X140001Y311500D02*
Y308834D01*
X143999D01*
Y311500D01*
X142000Y308834D02*
Y310167D01*
X140001Y312833D02*
X143999D01*
Y314832D01*
X143333Y315499D01*
X140667D01*
X140001Y314832D01*
Y312833D01*
X143999Y316832D02*
Y318164D01*
Y317498D01*
X140001D01*
X140667Y316832D01*
X293499Y335844D02*
X287501D01*
X289500D01*
X293499Y331845D01*
X290500Y334844D01*
X287501Y331845D01*
X293499Y329846D02*
Y325847D01*
X292499D01*
X288501Y329846D01*
X287501D01*
X195668Y624499D02*
Y620501D01*
Y621834D01*
X198334Y624499D01*
X196334Y622500D01*
X198334Y620501D01*
X202332Y624499D02*
X200999Y623833D01*
X199667Y622500D01*
Y621167D01*
X200333Y620501D01*
X201666D01*
X202332Y621167D01*
Y621834D01*
X201666Y622500D01*
X199667D01*
X100502Y259999D02*
Y254001D01*
Y256000D01*
X104500Y259999D01*
X101501Y257000D01*
X104500Y254001D01*
X110498Y259999D02*
X106500D01*
Y257000D01*
X108499Y258000D01*
X109499D01*
X110498Y257000D01*
Y255001D01*
X109499Y254001D01*
X107499D01*
X106500Y255001D01*
X7501Y324502D02*
X13499D01*
X11500D01*
X7501Y328500D01*
X10500Y325501D01*
X13499Y328500D01*
Y333499D02*
X7501D01*
X10500Y330500D01*
Y334498D01*
X23501Y259002D02*
X29499D01*
X27500D01*
X23501Y263000D01*
X26500Y260001D01*
X29499Y263000D01*
X24501Y265000D02*
X23501Y265999D01*
Y267999D01*
X24501Y268998D01*
X25500D01*
X26500Y267999D01*
Y266999D01*
Y267999D01*
X27500Y268998D01*
X28499D01*
X29499Y267999D01*
Y265999D01*
X28499Y265000D01*
X238334Y624999D02*
Y621001D01*
Y622334D01*
X241000Y624999D01*
X239001Y623000D01*
X241000Y621001D01*
X242333D02*
X243666D01*
X242999D01*
Y624999D01*
X242333Y624333D01*
X92002Y339274D02*
X93335D01*
X92668D01*
Y335275D01*
X92002D01*
X93335D01*
X98000Y338608D02*
X97333Y339274D01*
X96000D01*
X95334Y338608D01*
Y335942D01*
X96000Y335275D01*
X97333D01*
X98000Y335942D01*
X101998Y339274D02*
X99333D01*
Y337275D01*
X100665Y337941D01*
X101332D01*
X101998Y337275D01*
Y335942D01*
X101332Y335275D01*
X99999D01*
X99333Y335942D01*
X81501Y365502D02*
Y366834D01*
Y366168D01*
X85499D01*
Y365502D01*
Y366834D01*
X82167Y371500D02*
X81501Y370833D01*
Y369500D01*
X82167Y368834D01*
X84833D01*
X85499Y369500D01*
Y370833D01*
X84833Y371500D01*
X85499Y374832D02*
X81501D01*
X83500Y372833D01*
Y375498D01*
X49002Y446499D02*
X50335D01*
X49668D01*
Y442501D01*
X49002D01*
X50335D01*
X55000Y445833D02*
X54333Y446499D01*
X53000D01*
X52334Y445833D01*
Y443167D01*
X53000Y442501D01*
X54333D01*
X55000Y443167D01*
X56333Y445833D02*
X56999Y446499D01*
X58332D01*
X58998Y445833D01*
Y445166D01*
X58332Y444500D01*
X57665D01*
X58332D01*
X58998Y443834D01*
Y443167D01*
X58332Y442501D01*
X56999D01*
X56333Y443167D01*
X236501Y570002D02*
Y571335D01*
Y570668D01*
X240499D01*
Y570002D01*
Y571335D01*
X237167Y576000D02*
X236501Y575333D01*
Y574000D01*
X237167Y573334D01*
X239833D01*
X240499Y574000D01*
Y575333D01*
X239833Y576000D01*
X240499Y579998D02*
Y577333D01*
X237834Y579998D01*
X237167D01*
X236501Y579332D01*
Y577999D01*
X237167Y577333D01*
X231500Y555499D02*
X228834D01*
Y553500D01*
X230167D01*
X228834D01*
Y551501D01*
X232833D02*
X234166D01*
X233499D01*
Y555499D01*
X232833Y554833D01*
X7001Y363168D02*
X10999D01*
Y365167D01*
X10333Y365834D01*
X7667D01*
X7001Y365167D01*
Y363168D01*
Y367166D02*
Y369832D01*
X7667D01*
X10333Y367166D01*
X10999D01*
X109168Y460999D02*
Y457001D01*
X111167D01*
X111834Y457667D01*
Y460333D01*
X111167Y460999D01*
X109168D01*
X115832D02*
X114499Y460333D01*
X113166Y459000D01*
Y457667D01*
X113833Y457001D01*
X115166D01*
X115832Y457667D01*
Y458334D01*
X115166Y459000D01*
X113166D01*
X86001Y381168D02*
X89999D01*
Y383167D01*
X89333Y383834D01*
X86667D01*
X86001Y383167D01*
Y381168D01*
Y387832D02*
Y385167D01*
X88000D01*
X87334Y386499D01*
Y387166D01*
X88000Y387832D01*
X89333D01*
X89999Y387166D01*
Y385833D01*
X89333Y385167D01*
X95168Y460999D02*
Y457001D01*
X97167D01*
X97834Y457667D01*
Y460333D01*
X97167Y460999D01*
X95168D01*
X101166Y457001D02*
Y460999D01*
X99167Y459000D01*
X101832D01*
X8668Y382430D02*
Y378432D01*
X10667D01*
X11333Y379098D01*
Y381764D01*
X10667Y382430D01*
X8668D01*
X12666Y381764D02*
X13333Y382430D01*
X14666D01*
X15332Y381764D01*
Y381098D01*
X14666Y380431D01*
X13999D01*
X14666D01*
X15332Y379765D01*
Y379098D01*
X14666Y378432D01*
X13333D01*
X12666Y379098D01*
X6501Y452883D02*
X10499D01*
Y454883D01*
X9833Y455549D01*
X7167D01*
X6501Y454883D01*
Y452883D01*
X10499Y459548D02*
Y456882D01*
X7834Y459548D01*
X7167D01*
X6501Y458881D01*
Y457548D01*
X7167Y456882D01*
X81834Y460999D02*
Y457001D01*
X83834D01*
X84500Y457667D01*
Y460333D01*
X83834Y460999D01*
X81834D01*
X85833Y457001D02*
X87166D01*
X86499D01*
Y460999D01*
X85833Y460333D01*
X112667Y368667D02*
X112001Y368001D01*
Y366668D01*
X112667Y366002D01*
X115333D01*
X115999Y366668D01*
Y368001D01*
X115333Y368667D01*
X115999Y370000D02*
Y371333D01*
Y370667D01*
X112001D01*
X112667Y370000D01*
X112001Y373333D02*
Y375998D01*
X112667D01*
X115333Y373333D01*
X115999D01*
X65624Y319167D02*
X64957Y318501D01*
Y317168D01*
X65624Y316502D01*
X68290D01*
X68956Y317168D01*
Y318501D01*
X68290Y319167D01*
X68956Y320500D02*
Y321833D01*
Y321167D01*
X64957D01*
X65624Y320500D01*
X64957Y326498D02*
X65624Y325166D01*
X66957Y323833D01*
X68290D01*
X68956Y324499D01*
Y325832D01*
X68290Y326498D01*
X67623D01*
X66957Y325832D01*
Y323833D01*
X23667Y423333D02*
X23001Y423999D01*
X21668D01*
X21002Y423333D01*
Y420667D01*
X21668Y420001D01*
X23001D01*
X23667Y420667D01*
X25000Y420001D02*
X26333D01*
X25667D01*
Y423999D01*
X25000Y423333D01*
X30998Y423999D02*
X28333D01*
Y422000D01*
X29665Y422666D01*
X30332D01*
X30998Y422000D01*
Y420667D01*
X30332Y420001D01*
X28999D01*
X28333Y420667D01*
X39174Y396877D02*
X38508Y397544D01*
X37175D01*
X36509Y396877D01*
Y394211D01*
X37175Y393545D01*
X38508D01*
X39174Y394211D01*
X40507Y393545D02*
X41840D01*
X41174D01*
Y397544D01*
X40507Y396877D01*
X45839Y393545D02*
Y397544D01*
X43839Y395544D01*
X46505D01*
X24667Y396833D02*
X24001Y397499D01*
X22668D01*
X22002Y396833D01*
Y394167D01*
X22668Y393501D01*
X24001D01*
X24667Y394167D01*
X26000Y393501D02*
X27333D01*
X26667D01*
Y397499D01*
X26000Y396833D01*
X29333D02*
X29999Y397499D01*
X31332D01*
X31998Y396833D01*
Y396166D01*
X31332Y395500D01*
X30665D01*
X31332D01*
X31998Y394834D01*
Y394167D01*
X31332Y393501D01*
X29999D01*
X29333Y394167D01*
X67167Y396377D02*
X66501Y397044D01*
X65168D01*
X64502Y396377D01*
Y393711D01*
X65168Y393045D01*
X66501D01*
X67167Y393711D01*
X68500Y393045D02*
X69833D01*
X69167D01*
Y397044D01*
X68500Y396377D01*
X74498Y393045D02*
X71833D01*
X74498Y395711D01*
Y396377D01*
X73832Y397044D01*
X72499D01*
X71833Y396377D01*
X53334Y396833D02*
X52667Y397499D01*
X51335D01*
X50668Y396833D01*
Y394167D01*
X51335Y393501D01*
X52667D01*
X53334Y394167D01*
X54667Y393501D02*
X56000D01*
X55333D01*
Y397499D01*
X54667Y396833D01*
X57999Y393501D02*
X59332D01*
X58666D01*
Y397499D01*
X57999Y396833D01*
X216501Y326000D02*
X215501Y325001D01*
Y323001D01*
X216501Y322002D01*
X220499D01*
X221499Y323001D01*
Y325001D01*
X220499Y326000D01*
X215501Y328000D02*
Y331998D01*
X216501D01*
X220499Y328000D01*
X221499D01*
X198834Y516833D02*
X198167Y517499D01*
X196834D01*
X196168Y516833D01*
Y514167D01*
X196834Y513501D01*
X198167D01*
X198834Y514167D01*
X202832Y517499D02*
X201499Y516833D01*
X200167Y515500D01*
Y514167D01*
X200833Y513501D01*
X202166D01*
X202832Y514167D01*
Y514834D01*
X202166Y515500D01*
X200167D01*
X199303Y546833D02*
X198637Y547499D01*
X197304D01*
X196637Y546833D01*
Y544167D01*
X197304Y543501D01*
X198637D01*
X199303Y544167D01*
X203302Y547499D02*
X200636D01*
Y545500D01*
X201969Y546166D01*
X202635D01*
X203302Y545500D01*
Y544167D01*
X202635Y543501D01*
X201302D01*
X200636Y544167D01*
X159626Y327501D02*
Y331499D01*
X157627D01*
X156960Y330833D01*
Y330166D01*
X157627Y329500D01*
X159626D01*
X157627D01*
X156960Y328834D01*
Y328167D01*
X157627Y327501D01*
X159626D01*
X155627D02*
Y330833D01*
X154961Y331499D01*
X153628D01*
X152961Y330833D01*
Y327501D01*
X151628D02*
X148963D01*
Y328167D01*
X151628Y330833D01*
Y331499D01*
X148963D01*
X147630D02*
X146297D01*
X146963D01*
Y327501D01*
X147630Y328167D01*
X121334Y460999D02*
Y457001D01*
X123334D01*
X124000Y457667D01*
Y458334D01*
X123334Y459000D01*
X121334D01*
X123334D01*
X124000Y459666D01*
Y460333D01*
X123334Y460999D01*
X121334D01*
X125333Y457001D02*
X126666D01*
X125999D01*
Y460999D01*
X125333Y460333D01*
%TF.MD5,99f3bf54c75d998b209f6999c7b41f46*%
M02*
