%TF.GenerationSoftware,Altium Limited,Altium Designer,24.3.1 (35)*%
G04 Layer_Color=128*
%FSLAX25Y25*%
%MOIN*%
%TF.SameCoordinates,1C50E6C9-DA4A-4B26-87AC-B265A0C711DB*%
%TF.FilePolarity,Positive*%
%TF.FileFunction,Drillmap*%
%TF.Part,Single*%
G01*
G75*
%TA.AperFunction,NonConductor*%
%ADD52C,0.00500*%
D52*
X121504Y12740D02*
X124496D01*
X123000Y11244D02*
Y14236D01*
X111504Y12740D02*
X114496D01*
X113000Y11244D02*
Y14236D01*
X101504Y12740D02*
X104496D01*
X103000Y11244D02*
Y14236D01*
X91504Y12740D02*
X94496D01*
X93000Y11244D02*
Y14236D01*
X81504Y12740D02*
X84496D01*
X83000Y11244D02*
Y14236D01*
X71504Y12740D02*
X74496D01*
X73000Y11244D02*
Y14236D01*
X61504Y12740D02*
X64496D01*
X63000Y11244D02*
Y14236D01*
X51504Y12740D02*
X54496D01*
X53000Y11244D02*
Y14236D01*
X41504Y12740D02*
X44496D01*
X43000Y11244D02*
Y14236D01*
X31504Y12740D02*
X34496D01*
X33000Y11244D02*
Y14236D01*
X21504Y12740D02*
X24496D01*
X23000Y11244D02*
Y14236D01*
X11504Y12740D02*
X14496D01*
X13000Y11244D02*
Y14236D01*
X11504Y44000D02*
X14496D01*
X13000Y42504D02*
Y45496D01*
X21504Y44000D02*
X24496D01*
X23000Y42504D02*
Y45496D01*
X31504Y44000D02*
X34496D01*
X33000Y42504D02*
Y45496D01*
X41504Y44000D02*
X44496D01*
X43000Y42504D02*
Y45496D01*
X51504Y44000D02*
X54496D01*
X53000Y42504D02*
Y45496D01*
X61504Y44000D02*
X64496D01*
X63000Y42504D02*
Y45496D01*
X71504Y44000D02*
X74496D01*
X73000Y42504D02*
Y45496D01*
X81504Y44000D02*
X84496D01*
X83000Y42504D02*
Y45496D01*
X91504Y44000D02*
X94496D01*
X93000Y42504D02*
Y45496D01*
X101504Y44000D02*
X104496D01*
X103000Y42504D02*
Y45496D01*
X111504Y44000D02*
X114496D01*
X113000Y42504D02*
Y45496D01*
X121504Y44000D02*
X124496D01*
X123000Y42504D02*
Y45496D01*
X10130Y68500D02*
X13870D01*
X12000Y66630D02*
Y70370D01*
X20130Y68500D02*
X23870D01*
X22000Y66630D02*
Y70370D01*
X30130Y68500D02*
X33870D01*
X32000Y66630D02*
Y70370D01*
X40130Y68500D02*
X43870D01*
X42000Y66630D02*
Y70370D01*
X50130Y68500D02*
X53870D01*
X52000Y66630D02*
Y70370D01*
X50130Y128500D02*
X53870D01*
X52000Y126630D02*
Y130370D01*
X40130Y128500D02*
X43870D01*
X42000Y126630D02*
Y130370D01*
X30130Y128500D02*
X33870D01*
X32000Y126630D02*
Y130370D01*
X20130Y128500D02*
X23870D01*
X22000Y126630D02*
Y130370D01*
X10130Y128500D02*
X13870D01*
X12000Y126630D02*
Y130370D01*
X65630Y68500D02*
X69370D01*
X67500Y66630D02*
Y70370D01*
X75630Y68500D02*
X79370D01*
X77500Y66630D02*
Y70370D01*
X85630Y68500D02*
X89370D01*
X87500Y66630D02*
Y70370D01*
X95630Y68500D02*
X99370D01*
X97500Y66630D02*
Y70370D01*
X105630Y68500D02*
X109370D01*
X107500Y66630D02*
Y70370D01*
X105630Y128500D02*
X109370D01*
X107500Y126630D02*
Y130370D01*
X95630Y128500D02*
X99370D01*
X97500Y126630D02*
Y130370D01*
X85630Y128500D02*
X89370D01*
X87500Y126630D02*
Y130370D01*
X75630Y128500D02*
X79370D01*
X77500Y126630D02*
Y130370D01*
X65630Y128500D02*
X69370D01*
X67500Y126630D02*
Y130370D01*
X137000Y236000D02*
X143000D01*
X140000Y233000D02*
Y239000D01*
X120000Y236000D02*
X126000D01*
X123000Y233000D02*
Y239000D01*
X86000Y236000D02*
X92000D01*
X89000Y233000D02*
Y239000D01*
X103000Y236000D02*
X109000D01*
X106000Y233000D02*
Y239000D01*
X78000Y236000D02*
X84000D01*
X81000Y233000D02*
Y239000D01*
X111000Y236000D02*
X117000D01*
X114000Y233000D02*
Y239000D01*
X95000Y236000D02*
X101000D01*
X98000Y233000D02*
Y239000D01*
X128000Y236000D02*
X134000D01*
X131000Y233000D02*
Y239000D01*
X175630Y70000D02*
X179370D01*
X177500Y68130D02*
Y71870D01*
X185630Y70000D02*
X189370D01*
X187500Y68130D02*
Y71870D01*
X195630Y70000D02*
X199370D01*
X197500Y68130D02*
Y71870D01*
X205630Y70000D02*
X209370D01*
X207500Y68130D02*
Y71870D01*
X215630Y70000D02*
X219370D01*
X217500Y68130D02*
Y71870D01*
X215630Y130000D02*
X219370D01*
X217500Y128130D02*
Y131870D01*
X205630Y130000D02*
X209370D01*
X207500Y128130D02*
Y131870D01*
X195630Y130000D02*
X199370D01*
X197500Y128130D02*
Y131870D01*
X185630Y130000D02*
X189370D01*
X187500Y128130D02*
Y131870D01*
X175630Y130000D02*
X179370D01*
X177500Y128130D02*
Y131870D01*
X145000Y236000D02*
X151000D01*
X148000Y233000D02*
Y239000D01*
X178539Y42500D02*
X183461D01*
X181000Y40039D02*
Y44961D01*
X168539Y42500D02*
X173461D01*
X171000Y40039D02*
Y44961D01*
X158539Y42500D02*
X163461D01*
X161000Y40039D02*
Y44961D01*
X148539Y42500D02*
X153461D01*
X151000Y40039D02*
Y44961D01*
X138539Y42500D02*
X143461D01*
X141000Y40039D02*
Y44961D01*
X120630Y69500D02*
X124370D01*
X122500Y67630D02*
Y71370D01*
X130630Y69500D02*
X134370D01*
X132500Y67630D02*
Y71370D01*
X140630Y69500D02*
X144370D01*
X142500Y67630D02*
Y71370D01*
X150630Y69500D02*
X154370D01*
X152500Y67630D02*
Y71370D01*
X160630Y69500D02*
X164370D01*
X162500Y67630D02*
Y71370D01*
X160630Y129500D02*
X164370D01*
X162500Y127630D02*
Y131370D01*
X150630Y129500D02*
X154370D01*
X152500Y127630D02*
Y131370D01*
X140630Y129500D02*
X144370D01*
X142500Y127630D02*
Y131370D01*
X130630Y129500D02*
X134370D01*
X132500Y127630D02*
Y131370D01*
X120630Y129500D02*
X124370D01*
X122500Y127630D02*
Y131370D01*
X192625Y38000D02*
X211375D01*
X202000Y28625D02*
Y47375D01*
X175130Y150000D02*
X178870D01*
X177000Y148130D02*
Y151870D01*
X185130Y150000D02*
X188870D01*
X187000Y148130D02*
Y151870D01*
X195130Y150000D02*
X198870D01*
X197000Y148130D02*
Y151870D01*
X205130Y150000D02*
X208870D01*
X207000Y148130D02*
Y151870D01*
X215130Y150000D02*
X218870D01*
X217000Y148130D02*
Y151870D01*
X215130Y210000D02*
X218870D01*
X217000Y208130D02*
Y211870D01*
X205130Y210000D02*
X208870D01*
X207000Y208130D02*
Y211870D01*
X195130Y210000D02*
X198870D01*
X197000Y208130D02*
Y211870D01*
X185130Y210000D02*
X188870D01*
X187000Y208130D02*
Y211870D01*
X175130Y210000D02*
X178870D01*
X177000Y208130D02*
Y211870D01*
X10130Y149500D02*
X13870D01*
X12000Y147630D02*
Y151370D01*
X20130Y149500D02*
X23870D01*
X22000Y147630D02*
Y151370D01*
X30130Y149500D02*
X33870D01*
X32000Y147630D02*
Y151370D01*
X40130Y149500D02*
X43870D01*
X42000Y147630D02*
Y151370D01*
X50130Y149500D02*
X53870D01*
X52000Y147630D02*
Y151370D01*
X50130Y209500D02*
X53870D01*
X52000Y207630D02*
Y211370D01*
X40130Y209500D02*
X43870D01*
X42000Y207630D02*
Y211370D01*
X30130Y209500D02*
X33870D01*
X32000Y207630D02*
Y211370D01*
X20130Y209500D02*
X23870D01*
X22000Y207630D02*
Y211370D01*
X10130Y209500D02*
X13870D01*
X12000Y207630D02*
Y211370D01*
X120630Y149500D02*
X124370D01*
X122500Y147630D02*
Y151370D01*
X130630Y149500D02*
X134370D01*
X132500Y147630D02*
Y151370D01*
X140630Y149500D02*
X144370D01*
X142500Y147630D02*
Y151370D01*
X150630Y149500D02*
X154370D01*
X152500Y147630D02*
Y151370D01*
X160630Y149500D02*
X164370D01*
X162500Y147630D02*
Y151370D01*
X160630Y209500D02*
X164370D01*
X162500Y207630D02*
Y211370D01*
X150630Y209500D02*
X154370D01*
X152500Y207630D02*
Y211370D01*
X140630Y209500D02*
X144370D01*
X142500Y207630D02*
Y211370D01*
X130630Y209500D02*
X134370D01*
X132500Y207630D02*
Y211370D01*
X120630Y209500D02*
X124370D01*
X122500Y207630D02*
Y211370D01*
X65130Y149500D02*
X68870D01*
X67000Y147630D02*
Y151370D01*
X75130Y149500D02*
X78870D01*
X77000Y147630D02*
Y151370D01*
X85130Y149500D02*
X88870D01*
X87000Y147630D02*
Y151370D01*
X95130Y149500D02*
X98870D01*
X97000Y147630D02*
Y151370D01*
X105130Y149500D02*
X108870D01*
X107000Y147630D02*
Y151370D01*
X105130Y209500D02*
X108870D01*
X107000Y207630D02*
Y211370D01*
X95130Y209500D02*
X98870D01*
X97000Y207630D02*
Y211370D01*
X85130Y209500D02*
X88870D01*
X87000Y207630D02*
Y211370D01*
X75130Y209500D02*
X78870D01*
X77000Y207630D02*
Y211370D01*
X65130Y209500D02*
X68870D01*
X67000Y207630D02*
Y211370D01*
X3625Y262000D02*
X22375D01*
X13000Y252625D02*
Y271375D01*
X275625Y574000D02*
X294375D01*
X285000Y564625D02*
Y583375D01*
X277039Y329345D02*
X281961D01*
X279500Y326885D02*
Y331806D01*
X277039Y319345D02*
X281961D01*
X279500Y316885D02*
Y321806D01*
X277039Y309345D02*
X281961D01*
X279500Y306885D02*
Y311806D01*
X277039Y299345D02*
X281961D01*
X279500Y296885D02*
Y301806D01*
X277039Y289345D02*
X281961D01*
X279500Y286885D02*
Y291806D01*
X197622Y377000D02*
X200850D01*
X199236Y375386D02*
Y378614D01*
X187386Y377000D02*
X190614D01*
X189000Y375386D02*
Y378614D01*
X177150Y377000D02*
X180378D01*
X178764Y375386D02*
Y378614D01*
X125190Y356500D02*
X128733D01*
X126961Y354728D02*
Y358272D01*
X155190Y356500D02*
X158733D01*
X156961Y354728D02*
Y358272D01*
X264100Y565000D02*
X267900D01*
X266000Y563100D02*
Y566900D01*
X254100Y565000D02*
X257900D01*
X256000Y563100D02*
Y566900D01*
X244100Y565000D02*
X247900D01*
X246000Y563100D02*
Y566900D01*
X247827Y321500D02*
X251173D01*
X249500Y319827D02*
Y323173D01*
X237827Y321500D02*
X241173D01*
X239500Y319827D02*
Y323173D01*
X275394Y610500D02*
X279606D01*
X277500Y608394D02*
Y612606D01*
X265394Y610500D02*
X269606D01*
X267500Y608394D02*
Y612606D01*
X255394Y610500D02*
X259606D01*
X257500Y608394D02*
Y612606D01*
X245394Y610500D02*
X249606D01*
X247500Y608394D02*
Y612606D01*
X103039Y268500D02*
X107961D01*
X105500Y266039D02*
Y270961D01*
X103039Y278500D02*
X107961D01*
X105500Y276039D02*
Y280961D01*
X103039Y288500D02*
X107961D01*
X105500Y286039D02*
Y290961D01*
X103039Y298500D02*
X107961D01*
X105500Y296039D02*
Y300961D01*
X103039Y308500D02*
X107961D01*
X105500Y306039D02*
Y310961D01*
X103039Y318500D02*
X107961D01*
X105500Y316039D02*
Y320961D01*
X216228Y439500D02*
X219772D01*
X218000Y437728D02*
Y441272D01*
X216228Y449500D02*
X219772D01*
X218000Y447728D02*
Y451272D01*
X216228Y429500D02*
X219772D01*
X218000Y427728D02*
Y431272D01*
X216228Y419500D02*
X219772D01*
X218000Y417728D02*
Y421272D01*
X216228Y409500D02*
X219772D01*
X218000Y407728D02*
Y411272D01*
X216228Y399500D02*
X219772D01*
X218000Y397728D02*
Y401272D01*
X216228Y389500D02*
X219772D01*
X218000Y387728D02*
Y391272D01*
X216228Y379500D02*
X219772D01*
X218000Y377728D02*
Y381272D01*
X216228Y369500D02*
X219772D01*
X218000Y367728D02*
Y371272D01*
X216228Y359500D02*
X219772D01*
X218000Y357728D02*
Y361272D01*
X216228Y349500D02*
X219772D01*
X218000Y347728D02*
Y351272D01*
X216228Y459500D02*
X219772D01*
X218000Y457728D02*
Y461272D01*
X216228Y469500D02*
X219772D01*
X218000Y467728D02*
Y471272D01*
X216228Y479500D02*
X219772D01*
X218000Y477728D02*
Y481272D01*
X216228Y489500D02*
X219772D01*
X218000Y487728D02*
Y491272D01*
X216228Y499500D02*
X219772D01*
X218000Y497728D02*
Y501272D01*
X216228Y509500D02*
X219772D01*
X218000Y507728D02*
Y511272D01*
X216228Y519500D02*
X219772D01*
X218000Y517728D02*
Y521272D01*
X216228Y529500D02*
X219772D01*
X218000Y527728D02*
Y531272D01*
X216228Y539500D02*
X219772D01*
X218000Y537728D02*
Y541272D01*
X286228Y439500D02*
X289772D01*
X288000Y437728D02*
Y441272D01*
X286228Y449500D02*
X289772D01*
X288000Y447728D02*
Y451272D01*
X286228Y429500D02*
X289772D01*
X288000Y427728D02*
Y431272D01*
X286228Y419500D02*
X289772D01*
X288000Y417728D02*
Y421272D01*
X286228Y409500D02*
X289772D01*
X288000Y407728D02*
Y411272D01*
X286228Y399500D02*
X289772D01*
X288000Y397728D02*
Y401272D01*
X286228Y389500D02*
X289772D01*
X288000Y387728D02*
Y391272D01*
X286228Y379500D02*
X289772D01*
X288000Y377728D02*
Y381272D01*
X286228Y369500D02*
X289772D01*
X288000Y367728D02*
Y371272D01*
X286228Y359500D02*
X289772D01*
X288000Y357728D02*
Y361272D01*
X286228Y349500D02*
X289772D01*
X288000Y347728D02*
Y351272D01*
X286228Y459500D02*
X289772D01*
X288000Y457728D02*
Y461272D01*
X286228Y469500D02*
X289772D01*
X288000Y467728D02*
Y471272D01*
X286228Y479500D02*
X289772D01*
X288000Y477728D02*
Y481272D01*
X286228Y489500D02*
X289772D01*
X288000Y487728D02*
Y491272D01*
X286228Y499500D02*
X289772D01*
X288000Y497728D02*
Y501272D01*
X286228Y509500D02*
X289772D01*
X288000Y507728D02*
Y511272D01*
X286228Y519500D02*
X289772D01*
X288000Y517728D02*
Y521272D01*
X286228Y529500D02*
X289772D01*
X288000Y527728D02*
Y531272D01*
X286228Y539500D02*
X289772D01*
X288000Y537728D02*
Y541272D01*
X212941Y287726D02*
X218059D01*
X215500Y285167D02*
Y290285D01*
X262154Y287726D02*
X267272D01*
X264713Y285167D02*
Y290285D01*
X212941Y268041D02*
X218059D01*
X215500Y265482D02*
Y270601D01*
X262154Y268041D02*
X267272D01*
X264713Y265482D02*
Y270601D01*
X150835Y287840D02*
X155953D01*
X153394Y285280D02*
Y290399D01*
X200047Y287840D02*
X205166D01*
X202606Y285280D02*
Y290399D01*
X150835Y268155D02*
X155953D01*
X153394Y265596D02*
Y270714D01*
X200047Y268155D02*
X205166D01*
X202606Y265596D02*
Y270714D01*
X120346Y264266D02*
X123653D01*
X122000Y262612D02*
Y265919D01*
X130347Y264266D02*
X133653D01*
X132000Y262612D02*
Y265919D01*
X120346Y308000D02*
X123653D01*
X122000Y306347D02*
Y309653D01*
X130347Y308000D02*
X133653D01*
X132000Y306347D02*
Y309653D01*
X120346Y286133D02*
X123653D01*
X122000Y284479D02*
Y287786D01*
X130347Y286133D02*
X133653D01*
X132000Y284479D02*
Y287786D01*
X35539Y263000D02*
X40461D01*
X38000Y260539D02*
Y265461D01*
X45539Y263000D02*
X50461D01*
X48000Y260539D02*
Y265461D01*
X55539Y263000D02*
X60461D01*
X58000Y260539D02*
Y265461D01*
X65539Y263000D02*
X70461D01*
X68000Y260539D02*
Y265461D01*
X75539Y263000D02*
X80461D01*
X78000Y260539D02*
Y265461D01*
X85539Y263000D02*
X90461D01*
X88000Y260539D02*
Y265461D01*
X143158Y422500D02*
X147725D01*
X145442Y420217D02*
Y424784D01*
X172214Y422500D02*
X175757D01*
X173985Y420728D02*
Y424272D01*
X22394Y343500D02*
X26606D01*
X24500Y341394D02*
Y345606D01*
X22394Y333500D02*
X26606D01*
X24500Y331394D02*
Y335606D01*
X22394Y323500D02*
X26606D01*
X24500Y321394D02*
Y325606D01*
X22394Y313500D02*
X26606D01*
X24500Y311394D02*
Y315606D01*
X109933Y396000D02*
X114067D01*
X112000Y393933D02*
Y398067D01*
X109933Y451512D02*
X114067D01*
X112000Y449445D02*
Y453579D01*
X17346Y366000D02*
X20653D01*
X19000Y364347D02*
Y367653D01*
X27347Y366000D02*
X30654D01*
X29000Y364347D02*
Y367653D01*
X81743Y451500D02*
X85877D01*
X83810Y449433D02*
Y453567D01*
X81743Y395988D02*
X85877D01*
X83810Y393921D02*
Y398055D01*
X77346Y384700D02*
X81677D01*
X79512Y382535D02*
Y386865D01*
X21835Y384700D02*
X26165D01*
X24000Y382535D02*
Y386865D01*
X95433Y395988D02*
X99567D01*
X97500Y393921D02*
Y398055D01*
X95433Y451500D02*
X99567D01*
X97500Y449433D02*
Y453567D01*
X62396Y427000D02*
X67986D01*
X65191Y424205D02*
Y429795D01*
X52356Y427000D02*
X57947D01*
X55152Y424205D02*
Y429795D01*
X42317Y427000D02*
X47908D01*
X45112Y424205D02*
Y429795D01*
X10433Y444431D02*
X14567D01*
X12500Y442364D02*
Y446498D01*
X10433Y388919D02*
X14567D01*
X12500Y386852D02*
Y390986D01*
X14433Y455716D02*
X18567D01*
X16500Y453649D02*
Y457783D01*
X69945Y455716D02*
X74079D01*
X72012Y453649D02*
Y457783D01*
X222031Y569000D02*
X225969D01*
X224000Y567031D02*
Y570968D01*
X202031Y569000D02*
X205968D01*
X204000Y567031D02*
Y570968D01*
X218917Y602000D02*
X223642D01*
X221280Y599638D02*
Y604362D01*
X205138Y602000D02*
X209862D01*
X207500Y599638D02*
Y604362D01*
X48531Y589000D02*
X52469D01*
X50500Y587032D02*
Y590969D01*
X146957Y589000D02*
X150894D01*
X148925Y587032D02*
Y590969D01*
X146957Y490575D02*
X150894D01*
X148925Y488606D02*
Y492543D01*
X127272Y490575D02*
X131209D01*
X129240Y488606D02*
Y492543D01*
X68217Y490575D02*
X72154D01*
X70185Y488606D02*
Y492543D01*
X48531Y490575D02*
X52469D01*
X50500Y488606D02*
Y492543D01*
X242600Y599000D02*
X245400D01*
X244000Y597600D02*
Y600400D01*
X208600Y341000D02*
X211400D01*
X210000Y339600D02*
Y342400D01*
X106600Y38000D02*
X109400D01*
X108000Y36600D02*
Y39400D01*
X61913Y269500D02*
X64713D01*
X63313Y268100D02*
Y270900D01*
X36200Y102900D02*
X39000D01*
X37600Y101500D02*
Y104300D01*
X193450Y460350D02*
X196250D01*
X194850Y458950D02*
Y461750D01*
X132800Y314200D02*
X135600D01*
X134200Y312800D02*
Y315600D01*
X162100Y464200D02*
X164900D01*
X163500Y462800D02*
Y465600D01*
X56600Y277000D02*
X59400D01*
X58000Y275600D02*
Y278400D01*
X221700Y274800D02*
X224500D01*
X223100Y273400D02*
Y276200D01*
X206500Y503500D02*
X209300D01*
X207900Y502100D02*
Y504900D01*
X93000Y354500D02*
X95800D01*
X94400Y353100D02*
Y355900D01*
X83400Y29700D02*
X86200D01*
X84800Y28300D02*
Y31100D01*
X49676Y382400D02*
X52476D01*
X51076Y381000D02*
Y383800D01*
X187900Y437700D02*
X190700D01*
X189300Y436300D02*
Y439100D01*
X186400Y351700D02*
X189200D01*
X187800Y350300D02*
Y353100D01*
%TF.MD5,e34efca43b346eccfa1a8e69ed1b2ca5*%
M02*
