%TF.GenerationSoftware,Altium Limited,Altium Designer,24.3.1 (35)*%
G04 Layer_Physical_Order=1*
G04 Layer_Color=255*
%FSLAX25Y25*%
%MOIN*%
%TF.SameCoordinates,1C50E6C9-DA4A-4B26-87AC-B265A0C711DB*%
%TF.FilePolarity,Positive*%
%TF.FileFunction,Copper,L1,Top,Signal*%
%TF.Part,Single*%
G01*
G75*
%TA.AperFunction,SMDPad,CuDef*%
%ADD10R,0.05709X0.04528*%
%ADD11R,0.04528X0.05709*%
%ADD12R,0.13858X0.07362*%
%ADD13R,0.17008X0.07165*%
%ADD14R,0.05906X0.02559*%
%ADD15R,0.02559X0.07579*%
%TA.AperFunction,Conductor*%
%ADD16C,0.01000*%
%TA.AperFunction,ComponentPad*%
%ADD17R,0.04567X0.04567*%
%ADD18C,0.04567*%
%ADD19R,0.05610X0.05610*%
%ADD20C,0.05610*%
%TA.AperFunction,WasherPad*%
%ADD21C,0.06000*%
%TA.AperFunction,ComponentPad*%
%ADD22C,0.07382*%
%ADD23R,0.07382X0.07382*%
%ADD24R,0.07382X0.07382*%
%ADD25R,0.05248X0.05248*%
%ADD26C,0.05248*%
%ADD27C,0.05543*%
%ADD28C,0.05800*%
%ADD29R,0.05800X0.05800*%
%ADD30C,0.06614*%
%ADD31C,0.06319*%
%ADD32R,0.05543X0.05543*%
%ADD33R,0.07874X0.07874*%
%ADD34C,0.07874*%
%ADD35C,0.05374*%
%ADD36C,0.02284*%
%ADD37C,0.01772*%
%ADD38C,0.06201*%
%ADD39R,0.06201X0.06201*%
%ADD40R,0.06496X0.06496*%
%ADD41C,0.06496*%
%ADD42C,0.08386*%
%ADD43R,0.08386X0.08386*%
%ADD44R,0.06201X0.06201*%
%ADD45C,0.05906*%
%ADD46C,0.07087*%
%ADD47R,0.07087X0.07087*%
%TA.AperFunction,ViaPad*%
%ADD48C,0.05000*%
D10*
X55000Y411543D02*
D03*
Y404457D02*
D03*
X199500Y476043D02*
D03*
Y468957D02*
D03*
X199970Y526957D02*
D03*
Y534043D02*
D03*
X199500Y496957D02*
D03*
Y504043D02*
D03*
X196000Y346500D02*
D03*
Y353587D02*
D03*
X183500Y332000D02*
D03*
Y324913D02*
D03*
X13000Y286957D02*
D03*
Y294043D02*
D03*
X28500Y286957D02*
D03*
Y294043D02*
D03*
X41007Y411543D02*
D03*
Y404457D02*
D03*
X26099Y439000D02*
D03*
Y431913D02*
D03*
X69500Y404457D02*
D03*
Y411543D02*
D03*
X27000D02*
D03*
Y404457D02*
D03*
D11*
X256543Y592500D02*
D03*
X249457D02*
D03*
X276457D02*
D03*
X283543D02*
D03*
X76500Y279000D02*
D03*
X69413D02*
D03*
X206087Y312000D02*
D03*
X199000D02*
D03*
X206543Y330000D02*
D03*
X199457D02*
D03*
X179043Y311500D02*
D03*
X171957D02*
D03*
X77543Y307500D02*
D03*
X70457D02*
D03*
X49543D02*
D03*
X42457D02*
D03*
X55500Y292993D02*
D03*
X48413D02*
D03*
X77957Y322000D02*
D03*
X85043D02*
D03*
X83543Y293500D02*
D03*
X76457D02*
D03*
X49043Y279000D02*
D03*
X41957D02*
D03*
X48957Y321500D02*
D03*
X56043D02*
D03*
X97457Y370000D02*
D03*
X104543D02*
D03*
X97457Y384310D02*
D03*
X104543D02*
D03*
D12*
X130166Y422500D02*
D03*
D13*
X190639D02*
D03*
D14*
X85370Y359275D02*
D03*
Y354275D02*
D03*
Y349275D02*
D03*
Y344275D02*
D03*
X106630D02*
D03*
Y349275D02*
D03*
Y354275D02*
D03*
Y359275D02*
D03*
D15*
X41076Y371551D02*
D03*
X46076D02*
D03*
X51076D02*
D03*
X56076D02*
D03*
X61076D02*
D03*
X66076D02*
D03*
X71076D02*
D03*
X76076D02*
D03*
Y334449D02*
D03*
X71076D02*
D03*
X66076D02*
D03*
X61076D02*
D03*
X56076D02*
D03*
X51076D02*
D03*
X46076D02*
D03*
X41076D02*
D03*
D16*
X244000Y594600D02*
X246100Y592500D01*
X244000Y594600D02*
Y599000D01*
X246100Y592500D02*
X249457D01*
X210000Y341000D02*
Y422072D01*
X213700Y425772D01*
X44400Y411543D02*
X51487Y404457D01*
X50600Y405857D02*
X52000Y404457D01*
X108000Y38000D02*
Y55000D01*
X198900Y476043D02*
Y481300D01*
X195600Y504043D02*
X196143D01*
X198900Y476043D02*
X199500D01*
X193643D02*
X198900D01*
X29413Y431913D02*
X38613D01*
X40900Y387100D02*
Y404457D01*
X83543Y268543D02*
Y290000D01*
X268800Y552200D02*
X279500Y541500D01*
X256000Y565000D02*
X268800Y552200D01*
X203900Y526957D02*
X215457D01*
X54800Y422600D02*
Y427000D01*
X51487Y404457D02*
X52000D01*
X61801Y359275D02*
X85370D01*
X51801D02*
X61801D01*
X23000Y439000D02*
Y449216D01*
X189300Y422500D02*
Y437700D01*
X27600Y211500D02*
Y213000D01*
Y142900D02*
Y211500D01*
X118100Y179800D02*
Y205100D01*
X274000Y592500D02*
X276457D01*
X266000Y584500D02*
X274000Y592500D01*
X266000Y565000D02*
Y584500D01*
X199970Y534043D02*
X212543D01*
X218000Y539500D01*
X105500Y288500D02*
X115813Y298813D01*
Y319064D01*
X120949Y324200D01*
X140600D01*
X170100Y353700D01*
Y452500D01*
X193643Y476043D01*
X279500Y319345D02*
X284700Y324545D01*
Y339800D01*
X281728Y342772D02*
X284700Y339800D01*
X281728Y342772D02*
Y533228D01*
X288000Y539500D01*
X63313Y269500D02*
X69413Y275600D01*
Y279000D01*
X104543Y361361D02*
Y370000D01*
Y361361D02*
X106630Y359275D01*
X49043Y282700D02*
X55500Y290000D01*
X49043Y279000D02*
Y282700D01*
X78000Y263000D02*
X83543Y268543D01*
X288000Y529500D02*
X292300Y533800D01*
Y547900D01*
X288000Y552200D02*
X292300Y547900D01*
X268800Y552200D02*
X288000D01*
X257500Y603100D02*
Y610500D01*
Y603100D02*
X260800Y599800D01*
Y569800D02*
Y599800D01*
X256000Y565000D02*
X260800Y569800D01*
X215457Y526957D02*
X218000Y529500D01*
X199500Y489400D02*
Y496957D01*
Y489400D02*
X203900Y485000D01*
Y461600D02*
Y485000D01*
X178764Y436464D02*
X203900Y461600D01*
X178764Y377000D02*
Y436464D01*
X106630Y354275D02*
X113300D01*
X120225Y361200D01*
X152261D01*
X156961Y356500D01*
X23000Y439000D02*
X26099D01*
X22700D02*
X23000D01*
X21700Y438000D02*
X22700Y439000D01*
X21700Y413843D02*
Y438000D01*
Y413843D02*
X24000Y411543D01*
X27000D01*
X16500Y455716D02*
X23000Y449216D01*
X279500Y329345D02*
Y541500D01*
X103375Y349275D02*
X106630D01*
X100300Y346200D02*
X103375Y349275D01*
X100300Y283700D02*
Y346200D01*
Y283700D02*
X105500Y278500D01*
X29000Y348000D02*
Y366000D01*
X24500Y343500D02*
X29000Y348000D01*
X24500Y323500D02*
X29200Y328200D01*
Y338800D01*
X24500Y343500D02*
X29200Y338800D01*
X24500Y298043D02*
Y313500D01*
Y298043D02*
X28500Y294043D01*
X27000Y387700D02*
Y404457D01*
X24000Y384700D02*
X27000Y387700D01*
X157900Y502900D02*
X224000Y569000D01*
X157900Y421000D02*
Y502900D01*
X153900Y417000D02*
X157900Y421000D01*
X118512Y417000D02*
X153900D01*
X97500Y395988D02*
X118512Y417000D01*
X97457Y384310D02*
Y387557D01*
X105900Y396000D01*
X112000D01*
X49543Y307500D02*
Y311000D01*
X47243Y313300D02*
X49543Y311000D01*
X38600Y313300D02*
X47243D01*
X33300Y308000D02*
X38600Y313300D01*
X33300Y284000D02*
Y308000D01*
X32200Y282900D02*
X33300Y284000D01*
X8700Y282900D02*
X32200D01*
X6600Y285000D02*
X8700Y282900D01*
X6600Y285000D02*
Y353600D01*
X19000Y366000D01*
X113000Y12740D02*
X137360Y37100D01*
X184000D01*
X197500Y50600D01*
Y70000D01*
X103000Y12740D02*
Y16800D01*
X151100Y64900D01*
X165700D01*
X169800Y69000D01*
Y194095D01*
X181305Y205600D01*
Y210916D01*
X185390Y215000D01*
X192000D01*
X197000Y210000D01*
X83000Y12740D02*
Y21200D01*
X88800Y27000D01*
Y50300D01*
X83100Y56000D02*
X88800Y50300D01*
X83100Y56000D02*
Y142990D01*
X83305Y143195D01*
Y145805D01*
X87000Y149500D01*
X87500Y68500D02*
X96800Y59200D01*
Y24837D02*
Y59200D01*
X89150Y17187D02*
X96800Y24837D01*
X89150Y9000D02*
Y17187D01*
X87107Y6957D02*
X89150Y9000D01*
X78784Y6957D02*
X87107D01*
X73000Y12740D02*
X78784Y6957D01*
X58860Y8600D02*
X63000Y12740D01*
X50000Y8600D02*
X58860D01*
X48000Y10600D02*
X50000Y8600D01*
X48000Y10600D02*
Y17600D01*
X37216Y28384D02*
X48000Y17600D01*
X37216Y28384D02*
Y63284D01*
X32000Y68500D02*
X37216Y63284D01*
X33000Y12740D02*
X40784Y4957D01*
X91157D01*
X99200Y13000D01*
Y21100D01*
X118000Y39900D01*
Y45000D01*
X137000Y64000D01*
X144000D01*
X146900Y66900D01*
Y134000D01*
X142500Y138400D02*
X146900Y134000D01*
X142500Y138400D02*
Y149500D01*
X152500Y129500D02*
Y137300D01*
X148100Y141700D02*
X152500Y137300D01*
X148100Y141700D02*
Y205100D01*
X152500Y209500D01*
X27000Y50000D02*
X33000Y44000D01*
X27000Y50000D02*
Y123500D01*
X22000Y128500D02*
X27000Y123500D01*
X132500Y129500D02*
Y137300D01*
X128100Y141700D02*
X132500Y137300D01*
X128100Y141700D02*
Y205100D01*
X132500Y209500D01*
X43000Y44000D02*
X47000Y48000D01*
Y123500D01*
X52000Y128500D01*
X162500Y129500D02*
Y137300D01*
X158100Y141700D02*
X162500Y137300D01*
X158100Y141700D02*
Y205100D01*
X162500Y209500D01*
X62600Y133400D02*
X67500Y128500D01*
X62600Y133400D02*
Y205100D01*
X67000Y209500D01*
X49200Y40200D02*
X53000Y44000D01*
X41000Y40200D02*
X49200D01*
X39216Y41984D02*
X41000Y40200D01*
X39216Y41984D02*
Y64195D01*
X37600Y65811D02*
X39216Y64195D01*
X37600Y65811D02*
Y102900D01*
X118100Y133900D02*
X122500Y129500D01*
X118100Y205100D02*
X122500Y209500D01*
X42000Y149500D02*
X46400Y153900D01*
X54800D01*
X59700Y149000D01*
Y99300D02*
Y149000D01*
Y99300D02*
X73100Y85900D01*
Y53900D02*
Y85900D01*
Y53900D02*
X83000Y44000D01*
X152500Y141700D02*
Y149500D01*
Y141700D02*
X156900Y137300D01*
Y73900D02*
Y137300D01*
X152500Y69500D02*
X156900Y73900D01*
X103000Y44000D02*
Y64000D01*
X107500Y68500D01*
X162500Y149500D02*
X166900Y145100D01*
Y73900D02*
Y145100D01*
X162500Y69500D02*
X166900Y73900D01*
X132500Y149500D02*
X136900Y145100D01*
Y73900D02*
Y145100D01*
X132500Y69500D02*
X136900Y73900D01*
X113000Y44000D02*
X132500Y63500D01*
Y69500D01*
X199500Y465000D02*
Y468957D01*
X194850Y460350D02*
X199500Y465000D01*
X85043Y306400D02*
Y322000D01*
Y306400D02*
X93200Y298243D01*
Y260300D02*
Y298243D01*
X90000Y257100D02*
X93200Y260300D01*
X53900Y257100D02*
X90000D01*
X48000Y263000D02*
X53900Y257100D01*
X213700Y425772D02*
Y485200D01*
X218000Y489500D01*
X232000Y503500D01*
Y595000D01*
X247500Y610500D01*
X249457Y575900D02*
Y592500D01*
Y575900D02*
X250400Y574957D01*
Y511900D02*
Y574957D01*
X218000Y479500D02*
X250400Y511900D01*
X134200Y314200D02*
X144000Y304400D01*
Y285600D02*
Y304400D01*
Y285600D02*
X181700Y247900D01*
X293200D01*
X298300Y253000D01*
Y449000D01*
X293500Y453800D02*
X298300Y449000D01*
X285900Y453800D02*
X293500D01*
X283728Y451628D02*
X285900Y453800D01*
X283728Y446072D02*
Y451628D01*
Y446072D02*
X286000Y443800D01*
X290000D01*
X292300Y441500D01*
Y423800D02*
Y441500D01*
X288000Y419500D02*
X292300Y423800D01*
X163500Y355000D02*
Y464200D01*
X160300Y351800D02*
X163500Y355000D01*
X138800Y351800D02*
X160300D01*
X105500Y318500D02*
X138800Y351800D01*
X255800Y323045D02*
X279500Y299345D01*
X255800Y323045D02*
Y381700D01*
X218000Y419500D02*
X255800Y381700D01*
X266200Y322645D02*
X279500Y309345D01*
X266200Y322645D02*
Y387200D01*
X229100Y424300D02*
X266200Y387200D01*
X215900Y424300D02*
X229100D01*
X213728Y422128D02*
X215900Y424300D01*
X213728Y417472D02*
Y422128D01*
Y417472D02*
X218000Y413200D01*
Y409500D02*
Y413200D01*
X76500Y279000D02*
Y282000D01*
X74000Y284500D02*
X76500Y282000D01*
X65500Y284500D02*
X74000D01*
X58000Y277000D02*
X65500Y284500D01*
X223100Y274800D02*
Y305100D01*
X239500Y321500D01*
X183500Y332000D02*
Y398800D01*
X200800Y416100D01*
Y453200D01*
X207900Y460300D01*
Y503500D01*
X189000Y360587D02*
Y377000D01*
Y360587D02*
X196000Y353587D01*
X199457Y330000D02*
Y334357D01*
X204700Y339600D01*
Y451000D01*
X209900Y456200D01*
Y497584D01*
X211900Y499584D01*
Y513400D01*
X218000Y519500D01*
X288000Y449500D02*
X296300Y441200D01*
Y259200D02*
Y441200D01*
X292000Y254900D02*
X296300Y259200D01*
X181700Y254900D02*
X292000D01*
X179043Y257557D02*
X181700Y254900D01*
X179043Y257557D02*
Y311500D01*
X142900D02*
X171957D01*
X136200Y318200D02*
X142900Y311500D01*
X131273Y318200D02*
X136200D01*
X127000Y313927D02*
X131273Y318200D01*
X127000Y291133D02*
Y313927D01*
X122000Y286133D02*
X127000Y291133D01*
X122000Y308000D02*
Y312927D01*
X129273Y320200D01*
X194300D01*
X199000Y315500D01*
Y312000D02*
Y315500D01*
X206543Y330000D02*
X216000D01*
X221000Y325000D01*
Y281900D02*
Y325000D01*
X215500Y276400D02*
X221000Y281900D01*
X215500Y268041D02*
Y276400D01*
X117813Y268453D02*
X122000Y264266D01*
X117813Y268453D02*
Y313940D01*
X126073Y322200D01*
X171387D01*
X174100Y324913D01*
X183500D01*
X94400Y354500D02*
X99175Y359275D01*
X106630D01*
X247500Y610500D02*
Y615100D01*
X250000Y617600D01*
X282943D01*
X283543Y617000D01*
Y592500D02*
Y617000D01*
X73000Y41500D02*
Y44000D01*
Y41500D02*
X84800Y29700D01*
X93000Y27558D02*
Y44000D01*
X86784Y21341D02*
X93000Y27558D01*
X86784Y11000D02*
Y21341D01*
X84740Y8957D02*
X86784Y11000D01*
X81243Y8957D02*
X84740D01*
X79200Y11000D02*
X81243Y8957D01*
X79200Y11000D02*
Y21400D01*
X67500Y33100D02*
X79200Y21400D01*
X67500Y33100D02*
Y68500D01*
X53000Y12740D02*
X56800Y16540D01*
Y134200D01*
X49547Y141453D02*
X56800Y134200D01*
X40047Y141453D02*
X49547D01*
X32000Y149500D02*
X40047Y141453D01*
X5600Y61400D02*
X23000Y44000D01*
X5600Y61400D02*
Y209400D01*
X12000Y215800D01*
X24800D01*
X27600Y213000D01*
X183305Y206305D02*
X187000Y210000D01*
X183305Y204400D02*
Y206305D01*
X182600Y203695D02*
X183305Y204400D01*
X182600Y134900D02*
Y203695D01*
Y134900D02*
X187500Y130000D01*
X129240Y490575D02*
X204000Y565335D01*
Y569000D01*
X79512Y384700D02*
X85712Y390900D01*
X87400D01*
X88500Y392000D01*
Y426054D01*
X81854Y432700D02*
X88500Y426054D01*
X39400Y432700D02*
X81854D01*
X38613Y431913D02*
X39400Y432700D01*
X92800Y456200D02*
X97500Y451500D01*
X82000Y456200D02*
X92800D01*
X79200Y453400D02*
X82000Y456200D01*
X79200Y444500D02*
Y453400D01*
Y444500D02*
X91000Y432700D01*
Y385000D02*
Y432700D01*
X85900Y379900D02*
X91000Y385000D01*
X74700Y379900D02*
X85900D01*
X74700D02*
Y410000D01*
X73157Y411543D02*
X74700Y410000D01*
X69500Y411543D02*
X73157D01*
X51076Y371551D02*
Y382400D01*
X26099Y431913D02*
X29413D01*
X30500Y433000D01*
Y461000D01*
X29200Y462300D02*
X30500Y461000D01*
X12000Y462300D02*
X29200D01*
X7800Y458100D02*
X12000Y462300D01*
X7800Y413400D02*
Y458100D01*
Y413400D02*
X17200Y404000D01*
Y382700D02*
Y404000D01*
Y382700D02*
X20000Y379900D01*
X33700D01*
X40900Y387100D01*
Y404457D02*
X41007D01*
X199236Y372664D02*
Y377000D01*
Y372664D02*
X200400Y371500D01*
Y343000D02*
Y371500D01*
X195600Y338200D02*
X200400Y343000D01*
X195600Y325600D02*
Y338200D01*
Y325600D02*
X205300D01*
X209900Y321000D01*
Y263600D02*
Y321000D01*
Y263600D02*
X212500Y261000D01*
X219500D01*
X227100Y268600D01*
Y299100D01*
X249500Y321500D01*
X206087Y304887D02*
Y312000D01*
X197100Y295900D02*
X206087Y304887D01*
X197100Y265000D02*
Y295900D01*
Y265000D02*
X204000Y258100D01*
X284000D01*
X292300Y266400D01*
Y395200D01*
X288000Y399500D02*
X292300Y395200D01*
X189300Y422500D02*
X190639D01*
X193000Y346500D02*
X196000D01*
X187800Y351700D02*
X193000Y346500D01*
X85043Y322000D02*
Y326500D01*
X83343Y328200D02*
X85043Y326500D01*
X52876Y328200D02*
X83343D01*
X51076Y330000D02*
X52876Y328200D01*
X51076Y330000D02*
Y334449D01*
X38000Y255600D02*
Y263000D01*
Y255600D02*
X40000Y253600D01*
X92000D01*
X95200Y256800D01*
Y336100D01*
X91500Y339800D02*
X95200Y336100D01*
X41076Y339800D02*
X91500D01*
X41076Y334449D02*
Y339800D01*
X108000Y55000D02*
X122500Y69500D01*
X102775Y354275D02*
X106630D01*
X99000Y350499D02*
X102775Y354275D01*
X92403Y350499D02*
X99000D01*
X88628Y354275D02*
X92403Y350499D01*
X85370Y354275D02*
X88628D01*
X56043Y321500D02*
Y325157D01*
X55000Y326200D02*
X56043Y325157D01*
X48876Y326200D02*
X55000D01*
X46076Y329000D02*
X48876Y326200D01*
X46076Y329000D02*
Y334449D01*
X55500Y290000D02*
Y292993D01*
Y290000D02*
X56800Y288700D01*
X82243D01*
X83543Y290000D01*
Y293500D01*
X17600Y72900D02*
X22000Y68500D01*
X17600Y72900D02*
Y135300D01*
X22000Y139700D01*
Y149500D01*
X73100Y145600D02*
X77000Y149500D01*
X73100Y120700D02*
Y145600D01*
Y120700D02*
X77500Y116300D01*
Y68500D02*
Y116300D01*
X187000Y150000D02*
X191900Y145100D01*
Y74400D02*
Y145100D01*
X187500Y70000D02*
X191900Y74400D01*
X7600Y145100D02*
X12000Y149500D01*
X7600Y72900D02*
Y145100D01*
Y72900D02*
X12000Y68500D01*
X93100Y145600D02*
X97000Y149500D01*
X93100Y72900D02*
Y145600D01*
Y72900D02*
X97500Y68500D01*
X122500Y141700D02*
Y149500D01*
Y141700D02*
X126900Y137300D01*
Y73900D02*
Y137300D01*
X122500Y69500D02*
X126900Y73900D01*
X118100Y133900D02*
Y179800D01*
X92000Y205900D02*
X118100Y179800D01*
X92000Y205900D02*
Y211900D01*
X90000Y213900D02*
X92000Y211900D01*
X71400Y213900D02*
X90000D01*
X67000Y209500D02*
X71400Y213900D01*
X12000Y128500D02*
Y140800D01*
X16400Y145200D01*
Y205100D01*
X12000Y209500D02*
X16400Y205100D01*
X217500Y130000D02*
X221400Y133900D01*
Y205600D01*
X217000Y210000D02*
X221400Y205600D01*
X77500Y128500D02*
Y140995D01*
X81305Y144800D01*
Y205195D01*
X77000Y209500D02*
X81305Y205195D01*
X37600Y213900D02*
X42000Y209500D01*
X30000Y213900D02*
X37600D01*
X27600Y211500D02*
X30000Y213900D01*
X27600Y142900D02*
X42000Y128500D01*
X46076Y365000D02*
X51801Y359275D01*
X46076Y365000D02*
Y371551D01*
X199500Y496957D02*
X202857D01*
X203900Y498000D01*
Y526957D01*
X199970D02*
X203900D01*
X9643Y286957D02*
X13000D01*
X8600Y288000D02*
X9643Y286957D01*
X8600Y288000D02*
Y317600D01*
X24500Y333500D01*
X49600Y271400D02*
X58000Y263000D01*
X44000Y271400D02*
X49600D01*
X41957Y273443D02*
X44000Y271400D01*
X41957Y273443D02*
Y279000D01*
X42457Y303000D02*
Y307500D01*
Y303000D02*
X45257Y300200D01*
X52300D01*
X55500Y297000D01*
Y292993D02*
Y297000D01*
X97457Y364731D02*
Y370000D01*
X92000Y359275D02*
X97457Y364731D01*
X85370Y359275D02*
X92000D01*
X70457Y307500D02*
Y312043D01*
X68000Y314500D02*
X70457Y312043D01*
X51457Y314500D02*
X68000D01*
X48957Y317000D02*
X51457Y314500D01*
X48957Y317000D02*
Y321500D01*
X112810Y422500D02*
X130166D01*
X83810Y451500D02*
X112810Y422500D01*
X29000Y366000D02*
X40076D01*
X41076Y367000D01*
Y371551D01*
X56076Y365000D02*
X61801Y359275D01*
X56076Y365000D02*
Y371551D01*
X44000Y292993D02*
X48413D01*
X38000Y286993D02*
X44000Y292993D01*
X38000Y263000D02*
Y286993D01*
X196643Y534043D02*
X199970D01*
X195600Y533000D02*
X196643Y534043D01*
X195600Y504043D02*
Y533000D01*
X54800Y427000D02*
X55152D01*
X50600Y418400D02*
X54800Y422600D01*
X50600Y405857D02*
Y418400D01*
X52000Y404457D02*
X55000D01*
X195100Y485100D02*
X198900Y481300D01*
X195100Y485100D02*
Y503000D01*
X196143Y504043D01*
X199500D01*
X262200Y606757D02*
X276457Y592500D01*
X262200Y606757D02*
Y613000D01*
X260000Y615200D02*
X262200Y613000D01*
X255000Y615200D02*
X260000D01*
X252800Y613000D02*
X255000Y615200D01*
X252800Y602543D02*
Y613000D01*
Y602543D02*
X256543Y598800D01*
Y592500D02*
Y598800D01*
X104543Y370000D02*
Y384310D01*
X13000Y286957D02*
X28500D01*
X77543Y303500D02*
Y307500D01*
Y303500D02*
X83543Y297500D01*
Y293500D02*
Y297500D01*
X67200Y322000D02*
X77957D01*
X66700Y321500D02*
X67200Y322000D01*
X56043Y321500D02*
X66700D01*
X77957Y314913D02*
Y322000D01*
X77543Y314500D02*
X77957Y314913D01*
X77543Y307500D02*
Y314500D01*
X106630Y349275D02*
Y354275D01*
Y344275D02*
Y349275D01*
X85370Y344275D02*
Y349275D01*
Y354275D01*
Y359275D01*
X55000Y404457D02*
X69500D01*
X41007Y411543D02*
X44400D01*
X27000D02*
X41007D01*
X70457Y303500D02*
Y307500D01*
Y303500D02*
X76457Y297500D01*
Y293500D02*
Y297500D01*
X132000Y286133D02*
Y308000D01*
Y264266D02*
Y286133D01*
X55000Y388476D02*
Y404457D01*
Y388476D02*
X56076Y387400D01*
Y371551D02*
Y387400D01*
X41076Y371551D02*
X46076D01*
X13000Y294043D02*
X28500D01*
X37700Y321500D02*
X48957D01*
X35700Y323500D02*
X37700Y321500D01*
X24500Y323500D02*
X35700D01*
X24500Y313500D02*
Y323500D01*
X55000Y411543D02*
X69500D01*
X70185Y474027D02*
Y490575D01*
Y474027D02*
X72012Y472200D01*
Y455716D02*
Y472200D01*
X197500Y70000D02*
Y130000D01*
X197000Y150000D02*
Y210000D01*
X87000Y149500D02*
Y209500D01*
X87500Y68500D02*
Y128500D01*
X32000Y68500D02*
Y128500D01*
Y149500D02*
Y209500D01*
X142500Y149500D02*
Y209500D01*
Y69500D02*
Y129500D01*
D17*
X123000Y12740D02*
D03*
D18*
X113000D02*
D03*
X103000D02*
D03*
X93000D02*
D03*
X83000D02*
D03*
X73000D02*
D03*
X63000D02*
D03*
X53000D02*
D03*
X43000D02*
D03*
X33000D02*
D03*
X23000D02*
D03*
X13000D02*
D03*
Y44000D02*
D03*
X23000D02*
D03*
X33000D02*
D03*
X43000D02*
D03*
X53000D02*
D03*
X63000D02*
D03*
X73000D02*
D03*
X83000D02*
D03*
X93000D02*
D03*
X103000D02*
D03*
X113000D02*
D03*
X123000D02*
D03*
D19*
X12000Y68500D02*
D03*
X67500D02*
D03*
X177500Y70000D02*
D03*
X122500Y69500D02*
D03*
X177000Y150000D02*
D03*
X12000Y149500D02*
D03*
X122500D02*
D03*
X67000D02*
D03*
D20*
X22000Y68500D02*
D03*
X32000D02*
D03*
X42000D02*
D03*
X52000D02*
D03*
Y128500D02*
D03*
X42000D02*
D03*
X32000D02*
D03*
X22000D02*
D03*
X12000D02*
D03*
X77500Y68500D02*
D03*
X87500D02*
D03*
X97500D02*
D03*
X107500D02*
D03*
Y128500D02*
D03*
X97500D02*
D03*
X87500D02*
D03*
X77500D02*
D03*
X67500D02*
D03*
X187500Y70000D02*
D03*
X197500D02*
D03*
X207500D02*
D03*
X217500D02*
D03*
Y130000D02*
D03*
X207500D02*
D03*
X197500D02*
D03*
X187500D02*
D03*
X177500D02*
D03*
X132500Y69500D02*
D03*
X142500D02*
D03*
X152500D02*
D03*
X162500D02*
D03*
Y129500D02*
D03*
X152500D02*
D03*
X142500D02*
D03*
X132500D02*
D03*
X122500D02*
D03*
X187000Y150000D02*
D03*
X197000D02*
D03*
X207000D02*
D03*
X217000D02*
D03*
Y210000D02*
D03*
X207000D02*
D03*
X197000D02*
D03*
X187000D02*
D03*
X177000D02*
D03*
X22000Y149500D02*
D03*
X32000D02*
D03*
X42000D02*
D03*
X52000D02*
D03*
Y209500D02*
D03*
X42000D02*
D03*
X32000D02*
D03*
X22000D02*
D03*
X12000D02*
D03*
X132500Y149500D02*
D03*
X142500D02*
D03*
X152500D02*
D03*
X162500D02*
D03*
Y209500D02*
D03*
X152500D02*
D03*
X142500D02*
D03*
X132500D02*
D03*
X122500D02*
D03*
X77000Y149500D02*
D03*
X87000D02*
D03*
X97000D02*
D03*
X107000D02*
D03*
Y209500D02*
D03*
X97000D02*
D03*
X87000D02*
D03*
X77000D02*
D03*
X67000D02*
D03*
D21*
X140000Y236000D02*
D03*
X123000D02*
D03*
X89000D02*
D03*
X106000D02*
D03*
X81000D02*
D03*
X114000D02*
D03*
X98000D02*
D03*
X131000D02*
D03*
X148000D02*
D03*
X202000Y38000D02*
D03*
X13000Y262000D02*
D03*
X285000Y574000D02*
D03*
D22*
X181000Y42500D02*
D03*
X171000D02*
D03*
X161000D02*
D03*
X151000D02*
D03*
X279500Y329345D02*
D03*
Y319345D02*
D03*
Y309345D02*
D03*
Y299345D02*
D03*
X105500Y278500D02*
D03*
Y288500D02*
D03*
Y298500D02*
D03*
Y308500D02*
D03*
Y318500D02*
D03*
X48000Y263000D02*
D03*
X58000D02*
D03*
X68000D02*
D03*
X78000D02*
D03*
X88000D02*
D03*
D23*
X141000Y42500D02*
D03*
X38000Y263000D02*
D03*
D24*
X279500Y289345D02*
D03*
X105500Y268500D02*
D03*
D25*
X199236Y377000D02*
D03*
D26*
X189000D02*
D03*
X178764D02*
D03*
D27*
X126961Y356500D02*
D03*
X156961D02*
D03*
X218000Y439500D02*
D03*
Y449500D02*
D03*
Y429500D02*
D03*
Y419500D02*
D03*
Y409500D02*
D03*
Y399500D02*
D03*
Y389500D02*
D03*
Y379500D02*
D03*
Y369500D02*
D03*
Y359500D02*
D03*
Y459500D02*
D03*
Y469500D02*
D03*
Y479500D02*
D03*
Y489500D02*
D03*
Y499500D02*
D03*
Y509500D02*
D03*
Y519500D02*
D03*
Y529500D02*
D03*
Y539500D02*
D03*
X288000Y439500D02*
D03*
Y449500D02*
D03*
Y429500D02*
D03*
Y419500D02*
D03*
Y409500D02*
D03*
Y399500D02*
D03*
Y389500D02*
D03*
Y379500D02*
D03*
Y369500D02*
D03*
Y359500D02*
D03*
Y459500D02*
D03*
Y469500D02*
D03*
Y479500D02*
D03*
Y489500D02*
D03*
Y499500D02*
D03*
Y509500D02*
D03*
Y519500D02*
D03*
Y529500D02*
D03*
Y539500D02*
D03*
D28*
X266000Y565000D02*
D03*
X256000D02*
D03*
D29*
X246000D02*
D03*
D30*
X249500Y321500D02*
D03*
X239500D02*
D03*
D31*
X277500Y610500D02*
D03*
X267500D02*
D03*
X257500D02*
D03*
X247500D02*
D03*
X24500Y343500D02*
D03*
Y333500D02*
D03*
Y323500D02*
D03*
Y313500D02*
D03*
D32*
X218000Y349500D02*
D03*
X288000D02*
D03*
D33*
X215500Y287726D02*
D03*
X153394Y287840D02*
D03*
D34*
X264713Y287726D02*
D03*
X215500Y268041D02*
D03*
X264713D02*
D03*
X202606Y287840D02*
D03*
X153394Y268155D02*
D03*
X202606D02*
D03*
D35*
X122000Y264266D02*
D03*
X132000D02*
D03*
X122000Y308000D02*
D03*
X132000D02*
D03*
X122000Y286133D02*
D03*
X132000D02*
D03*
X19000Y366000D02*
D03*
X29000D02*
D03*
D36*
X145442Y422500D02*
D03*
D37*
X173985D02*
D03*
D38*
X112000Y396000D02*
D03*
X83810Y451500D02*
D03*
X97500Y395988D02*
D03*
X12500Y444431D02*
D03*
X16500Y455716D02*
D03*
D39*
X112000Y451512D02*
D03*
X83810Y395988D02*
D03*
X97500Y451500D02*
D03*
X12500Y388919D02*
D03*
D40*
X79512Y384700D02*
D03*
D41*
X24000D02*
D03*
D42*
X65191Y427000D02*
D03*
X55152D02*
D03*
D43*
X45112D02*
D03*
D44*
X72012Y455716D02*
D03*
D45*
X224000Y569000D02*
D03*
X204000D02*
D03*
X50500Y589000D02*
D03*
X148925D02*
D03*
Y490575D02*
D03*
X129240D02*
D03*
X70185D02*
D03*
X50500D02*
D03*
D46*
X221280Y602000D02*
D03*
D47*
X207500D02*
D03*
D48*
X244000Y599000D02*
D03*
X210000Y341000D02*
D03*
X108000Y38000D02*
D03*
X63313Y269500D02*
D03*
X37600Y102900D02*
D03*
X194850Y460350D02*
D03*
X134200Y314200D02*
D03*
X163500Y464200D02*
D03*
X58000Y277000D02*
D03*
X223100Y274800D02*
D03*
X207900Y503500D02*
D03*
X94400Y354500D02*
D03*
X84800Y29700D02*
D03*
X51076Y382400D02*
D03*
X189300Y437700D02*
D03*
X187800Y351700D02*
D03*
%TF.MD5,56f518aee0f53e39341394f29f4accfd*%
M02*
